# Rhino

mtllib campo.mtl
g Default campo_material3
usemtl material3
v 26.92049980163574 17.5359992980957 0
v 26.92049980163574 0 0
v 26.92049980163574 -17.5359992980957 0
v 13.46024990081787 17.5359992980957 0
v 13.46024990081787 0 0
v 13.46024990081787 -17.5359992980957 0
v 0 17.5359992980957 0
v 0 0 0
v 0 -17.5359992980957 0
vt 1 1
vt 0.5 1
vt 0 1
vt 1 0.5
vt 0.5 0.5
vt 0 0.5
vt 1 0
vt 0.5 0
vt 0 0
vn 0 0 1
vn 0 0 1
vn 0 0 1
vn 0 0 1
vn 0 0 1
vn 0 0 1
vn 0 0 1
vn 0 0 1
vn 0 0 1
f 5/5/5 8/8/8 9/9/9 6/6/6
f 2/2/2 5/5/5 6/6/6 3/3/3
f 4/4/4 7/7/7 8/8/8 5/5/5
f 1/1/1 4/4/4 5/5/5 2/2/2
g Default campo_material3
usemtl material3
v 0 17.5359992980957 0
v 0 0 0
v 0 -17.5359992980957 0
v -13.46024990081787 17.5359992980957 0
v -13.46024990081787 0 0
v -13.46024990081787 -17.5359992980957 0
v -26.92049980163574 17.5359992980957 0
v -26.92049980163574 0 0
v -26.92049980163574 -17.5359992980957 0
vt 1 0
vt 0.5 0
vt 0 0
vt 1 0.5
vt 0.5 0.5
vt 0 0.5
vt 1 1
vt 0.5 1
vt 0 1
vn 0 0 1
vn 0 0 1
vn 0 0 1
vn 0 0 1
vn 0 0 1
vn 0 0 1
vn 0 0 1
vn 0 0 1
vn 0 0 1
f 14/14/14 15/15/15 12/12/12 11/11/11
f 17/17/17 18/18/18 15/15/15 14/14/14
f 13/13/13 14/14/14 11/11/11 10/10/10
f 16/16/16 17/17/17 14/14/14 13/13/13
