# file generated by UVMapper
# NumVerts/NumTVerts/NumVNormals/NumFacets   20/12/20/5
# NumGroups/NumMaterials/NumRegions   1/1/0
# x/y/color/ppu   1024/353/0/50.00000000

v  1.25000000 -0.00000000  0.00000000
v -1.25000000  0.00000000  0.00000000
v -1.25000000  0.00000000  1.12500000
v  1.25000000 -0.00000000  1.12500000
v  1.25000000 -0.00000000  0.00000000
v  1.25000000 -0.00000000  1.12500000
v  1.25000000 -0.25000000  1.12500000
v  1.25000000 -0.25000000  0.00000000
v -1.25000000  0.00000000  1.12500000
v -1.25000000  0.00000000  0.00000000
v -1.25000000 -0.25000000  0.00000000
v -1.25000000 -0.25000000  1.12500000
v  1.25000000 -0.00000000  1.12500000
v -1.25000000  0.00000000  1.12500000
v -1.25000000 -0.25000000  1.12500000
v  1.25000000 -0.25000000  1.12500000
v -1.25000000 -0.25000000  0.00000000
v  1.25000000 -0.25000000  0.00000000
v  1.25000000 -0.25000000  1.12500000
v -1.25000000 -0.25000000  1.12500000

vt  0.50000000  1.00000000
vt  0.15517241  1.00000000
vt  0.65517241  0.55000001
vt  0.65517241  0.44999999
vt  0.15517241  0.55000001
vt  0.00000000  0.55000001
vt  0.00000000  0.44999999
vt  0.50000000  0.55000001
vt  0.50000000  0.44999999
vt  0.15517241  0.00000000
vt  0.50000000  0.00000000
vt  0.15517241  0.44999999

vn  0.00000000  1.00000000  0.00000000
vn  0.00000000  1.00000000  0.00000000
vn  0.00000000  1.00000000  0.00000000
vn  0.00000000  1.00000000  0.00000000
vn  1.00000000 -0.00000000  0.00000000
vn  1.00000000 -0.00000000  0.00000000
vn  1.00000000 -0.00000000  0.00000000
vn  1.00000000 -0.00000000  0.00000000
vn -1.00000000  0.00000000  0.00000000
vn -1.00000000  0.00000000  0.00000000
vn -1.00000000  0.00000000  0.00000000
vn -1.00000000  0.00000000  0.00000000
vn  0.00000000  0.00000000  1.00000000
vn  0.00000000  0.00000000  1.00000000
vn  0.00000000  0.00000000  1.00000000
vn  0.00000000  0.00000000  1.00000000
vn -0.00000000 -1.00000000  0.00000000
vn -0.00000000 -1.00000000  0.00000000
vn -0.00000000 -1.00000000  0.00000000
vn -0.00000000 -1.00000000  0.00000000

g Default object_1
usemtl material1
f 1/1/1 2/2/2 3/5/3 4/8/4
f 5/3/5 6/8/6 7/9/7 8/4/8
f 9/5/9 10/6/10 11/7/11 12/12/12
f 13/8/13 14/5/14 15/12/15 16/9/16
f 17/10/17 18/11/18 19/9/19 20/12/20
