# Rhino

mtllib highlight.mtl
g Default Default_material1
usemtl material1
v 7.367580413818359 0.5 -0.3307311832904816
v 7.31602954864502 0.5 0.9307734370231628
v 7.225156784057617 0.5 -1.479099631309509
v 7.072195053100586 0.5 2.091574668884277
v 6.90281867980957 0.5 -2.596481800079346
v 6.868083477020264 0.5 -0.3083087205886841
v 6.820027351379395 0.5 0.8676701784133911
v 6.735315799713135 0.5 -1.378821611404419
v 6.653840065002441 0.5 3.180729389190674
v 6.592723846435547 0.5 1.949773073196411
v 6.434831142425537 0.5 -2.420449256896973
v 6.406547069549561 0.5 -3.653324127197266
v 6.368586540222168 0.5 -0.285886287689209
v 6.32402515411377 0.5 0.8045668601989746
v 6.245474338531494 0.5 -1.278543710708618
v 6.202732086181641 0.5 2.965086698532105
v 6.113253116607666 0.5 1.807971358299255
v 6.058374404907227 0.5 4.205558776855469
v 5.97220516204834 0.5 -3.405641078948975
v 5.966843128204346 0.5 -2.244416475296021
v 5.75162410736084 0.5 2.749444007873535
v 5.692636489868164 0.5 -4.688764572143555
v 5.647637367248535 0.5 3.920436143875122
v 5.537862777709961 0.5 -3.157958030700684
v 5.309549331665039 0.5 5.118526458740234
v 5.306694984436035 0.5 -4.370882511138916
v 5.236899852752686 0.5 3.635313510894775
v 4.94957971572876 0.5 4.771507740020752
v 4.92442798614502 0.5 -5.490048885345459
v 4.920753479003906 0.5 -4.052999973297119
v 4.590568542480469 0.5 -5.117842197418213
v 4.589610099792481 0.5 4.42448902130127
v 4.403604507446289 0.5 5.915986061096191
v 4.256709098815918 0.5 -4.745635509490967
v 4.10505485534668 0.5 5.514902591705322
v 3.960644245147705 0.5 -6.221247673034668
v 3.806505680084229 0.5 5.113818645477295
v 3.692126035690308 0.5 -5.799468040466309
v 3.42360782623291 0.5 -5.377688407897949
v 3.387128114700317 0.5 6.551182270050049
v 3.157492160797119 0.5 6.107034206390381
v 2.9278564453125 0.5 5.662886142730713
v 2.886083126068115 0.5 -6.786836624145508
v 2.690416574478149 0.5 -6.326712131500244
v 2.494749784469605 0.5 -5.866587638854981
v 2.317520141601563 0.5 7.001408576965332
v 2.160400152206421 0.5 6.526737213134766
v 2.003280162811279 0.5 6.052065372467041
v 1.784465670585632 0.5 -7.155858039855957
v 1.663484930992127 0.5 -6.67071533203125
v 1.542504191398621 0.5 -6.185572147369385
v 1.153229475021362 0.5 7.284276485443115
v 1.075044512748718 0.5 6.790427207946777
v 0.9968594312667847 0.5 6.29657793045044
v 0.6384077668190002 0.5 -7.347316741943359
v 0.5951258540153503 0.5 -6.849193572998047
v 0.5518440008163452 0.5 -6.351070404052734
v 0 0.5 7.375
v 0 0.5 7.375
v -1.776356839400251e-015 0.5 7.375
v -1.776356839400251e-015 0.5 7.375
v -1.776356839400251e-015 0.5 7.375
v -0.5495879650115967 0.5 -6.351265907287598
v -0.5926929116249085 0.5 -6.849404335021973
v -0.6357978582382202 0.5 -7.347542762756348
v -0.9985052347183228 0.5 6.296317577362061
v -1.07681941986084 0.5 6.790146350860596
v -1.155133485794067 0.5 7.283975124359131
v -1.503989696502686 0.5 -6.19504976272583
v -1.621949672698975 0.5 -6.680935859680176
v -1.739909648895264 0.5 -7.166821956634522
v -1.997252941131592 0.5 6.054057121276856
v -2.153900146484375 0.5 6.528884887695313
v -2.310547351837158 0.5 7.003713130950928
v -2.479592084884644 0.5 -5.873010158538818
v -2.674069881439209 0.5 -6.333638191223145
v -2.868547677993774 0.5 -6.794266700744629
v -2.979976177215576 0.5 5.63563346862793
v -3.213699817657471 0.5 6.077643871307373
v -3.394757747650147 0.5 -5.395946979522705
v -3.447423458099365 0.5 6.519654750823975
v -3.661013126373291 0.5 -5.819158554077148
v -3.851583957672119 0.5 5.079953193664551
v -3.927268743515015 0.5 -6.242370128631592
v -4.153668880462647 0.5 5.478381156921387
v -4.256611824035645 0.5 -4.74572229385376
v -4.455753803253174 0.5 5.876808643341065
v -4.590463638305664 0.5 -5.117935657501221
v -4.619889736175537 0.5 4.392862796783447
v -4.924315929412842 0.5 -5.49014949798584
v -4.92998743057251 0.5 -4.041763305664063
v -4.982234001159668 0.5 4.737401485443115
v -5.244140625 0.5 3.624860525131226
v -5.316653251647949 0.5 -4.358764171600342
v -5.344578266143799 0.5 5.081939697265625
v -5.519496440887451 0.5 -3.189950704574585
v -5.65544605255127 0.5 3.909163236618042
v -5.703318595886231 0.5 -4.675765037536621
v -5.759256839752197 0.5 2.733420610427856
v -5.948859691619873 0.5 -2.291657686233521
v -5.95239782333374 0.5 -3.440142869949341
v -6.066751003265381 0.5 4.193466186523438
v -6.119357109069824 0.5 1.787202119827271
v -6.210962772369385 0.5 2.947806596755981
v -6.250479221343994 0.5 -1.25384795665741
v -6.332700729370117 0.5 0.7331600189208984
v -6.371131420135498 0.5 -0.2220634520053864
v -6.385299682617188 0.5 -3.690335035324097
v -6.415436744689941 0.5 -2.47139573097229
v -6.599307060241699 0.5 1.927374839782715
v -6.662669181823731 0.5 3.162192583084106
v -6.740712642669678 0.5 -1.352188944816589
v -6.829383373260498 0.5 0.7906627655029297
v -6.870827674865723 0.5 -0.239480197429657
v -6.88201379776001 0.5 -2.651133537292481
v -7.079256534576416 0.5 2.067547559738159
v -7.23094654083252 0.5 -1.450529932975769
v -7.326066017150879 0.5 0.8481654524803162
v -7.370524406433106 0.5 -0.2568969428539276
vt 0 0.7435897588729858
vt 0 0.7692307829856873
vt 0 0.7179487347602844
vt 0 0.7948718070983887
vt 0 0.692307710647583
vt 0.5 0.7435897588729858
vt 0.5 0.7692307829856873
vt 0.5 0.7179487347602844
vt 0 0.8205128312110901
vt 0.5 0.7948718070983887
vt 0.5 0.692307710647583
vt 0 0.6666666865348816
vt 1 0.7435897588729858
vt 1 0.7692307829856873
vt 1 0.7179487347602844
vt 0.5 0.8205128312110901
vt 1 0.7948718070983887
vt 0 0.8461538553237915
vt 0.5 0.6666666865348816
vt 1 0.692307710647583
vt 1 0.8205128312110901
vt 0 0.6410256624221802
vt 0.5 0.8461538553237915
vt 1 0.6666666865348816
vt 0 0.8717948794364929
vt 0.5 0.6410256624221802
vt 1 0.8461538553237915
vt 0.5 0.8717948794364929
vt 0 0.6153846383094788
vt 1 0.6410256624221802
vt 0.5 0.6153846383094788
vt 1 0.8717948794364929
vt 0 0.8974359035491943
vt 1 0.6153846383094788
vt 0.5 0.8974359035491943
vt 0 0.5897436141967773
vt 1 0.8974359035491943
vt 0.5 0.5897436141967773
vt 1 0.5897436141967773
vt 0 0.9230769276618958
vt 0.5 0.9230769276618958
vt 1 0.9230769276618958
vt 0 0.5641025900840759
vt 0.5 0.5641025900840759
vt 1 0.5641025900840759
vt 0 0.9487179517745972
vt 0.5 0.9487179517745972
vt 1 0.9487179517745972
vt 0 0.5384615659713745
vt 0.5 0.5384615659713745
vt 1 0.5384615659713745
vt 0 0.9743589758872986
vt 0.5 0.9743589758872986
vt 1 0.9743589758872986
vt 0 0.5128205418586731
vt 0.5 0.5128205418586731
vt 1 0.5128205418586731
vt 0.5 1
vt 0 1
vt 1 0
vt 0.5 0
vt 0 0
vt 1 0.4871794879436493
vt 0.5 0.4871794879436493
vt 0 0.4871794879436493
vt 1 0.02564102597534657
vt 0.5 0.02564102597534657
vt 0 0.02564102597534657
vt 1 0.4615384638309479
vt 0.5 0.4615384638309479
vt 0 0.4615384638309479
vt 1 0.05128205195069313
vt 0.5 0.05128205195069313
vt 0 0.05128205195069313
vt 1 0.4358974397182465
vt 0.5 0.4358974397182465
vt 0 0.4358974397182465
vt 1 0.07692307978868485
vt 0.5 0.07692307978868485
vt 1 0.410256415605545
vt 0 0.07692307978868485
vt 0.5 0.410256415605545
vt 1 0.1025641039013863
vt 0 0.410256415605545
vt 0.5 0.1025641039013863
vt 1 0.3846153914928436
vt 0 0.1025641039013863
vt 0.5 0.3846153914928436
vt 1 0.1282051354646683
vt 0 0.3846153914928436
vt 1 0.3589743673801422
vt 0.5 0.1282051354646683
vt 1 0.1538461595773697
vt 0.5 0.3589743673801422
vt 0 0.1282051354646683
vt 1 0.3333333432674408
vt 0.5 0.1538461595773697
vt 0 0.3589743673801422
vt 1 0.1794871836900711
vt 1 0.3076923191547394
vt 0.5 0.3333333432674408
vt 0 0.1538461595773697
vt 1 0.2051282078027725
vt 0.5 0.1794871836900711
vt 1 0.282051295042038
vt 1 0.2307692319154739
vt 1 0.2564102709293366
vt 0 0.3333333432674408
vt 0.5 0.3076923191547394
vt 0.5 0.2051282078027725
vt 0 0.1794871836900711
vt 0.5 0.282051295042038
vt 0.5 0.2307692319154739
vt 0.5 0.2564102709293366
vt 0 0.3076923191547394
vt 0 0.2051282078027725
vt 0 0.282051295042038
vt 0 0.2307692319154739
vt 0 0.2564102709293366
vn 0 1 -6.123031769111886e-017
vn 0 1 -6.123031769111886e-017
vn 0 1 -6.123031769111886e-017
vn 0 1 -6.123031769111886e-017
vn 0 1 -6.123031769111886e-017
vn 0 1 -6.123031769111886e-017
vn 0 1 -6.123031769111886e-017
vn 0 1 -6.123031769111886e-017
vn 0 1 -6.123031769111886e-017
vn 0 1 -6.123031769111886e-017
vn 0 1 -6.123031769111886e-017
vn 0 1 -6.123031769111886e-017
vn 0 1 -6.123031769111886e-017
vn 0 1 -6.123031769111886e-017
vn 0 1 -6.123031769111886e-017
vn 0 1 -6.123031769111886e-017
vn 0 1 -6.123031769111886e-017
vn 0 1 -6.123031769111886e-017
vn 0 1 -6.123031769111886e-017
vn 0 1 -6.123031769111886e-017
vn 0 1 -6.123031769111886e-017
vn 0 1 -6.123031769111886e-017
vn 0 1 -6.123031769111886e-017
vn 0 1 -6.123031769111886e-017
vn 0 1 -6.123031769111886e-017
vn 0 1 -6.123031769111886e-017
vn 0 1 -6.123031769111886e-017
vn 0 1 -6.123031769111886e-017
vn 0 1 -6.123031769111886e-017
vn 0 1 -6.123031769111886e-017
vn 0 1 -6.123031769111886e-017
vn 0 1 -6.123031769111886e-017
vn 0 1 -6.123031769111886e-017
vn 0 1 -6.123031769111886e-017
vn 0 1 -6.123031769111886e-017
vn 0 1 -6.123031769111886e-017
vn 0 1 -6.123031769111886e-017
vn 0 1 -6.123031769111886e-017
vn 0 1 -6.123031769111886e-017
vn 0 1 -6.123031769111886e-017
vn 0 1 -6.123031769111886e-017
vn 0 1 -6.123031769111886e-017
vn 0 1 -6.123031769111886e-017
vn 0 1 -6.123031769111886e-017
vn 0 1 -6.123031769111886e-017
vn 0 1 -6.123031769111886e-017
vn 0 1 -6.123031769111886e-017
vn 0 1 -6.123031769111886e-017
vn 0 1 -6.123031769111886e-017
vn 0 1 -6.123031769111886e-017
vn 0 1 -6.123031769111886e-017
vn 0 1 -6.123031769111886e-017
vn 0 1 -6.123031769111886e-017
vn 0 1 -6.123031769111886e-017
vn 0 1 -6.123031769111886e-017
vn 0 1 -6.123031769111886e-017
vn 0 1 -6.123031769111886e-017
vn 0 1 -6.123031769111886e-017
vn 0 1 -6.123031769111886e-017
vn 0 1 -6.123031769111886e-017
vn 0 1 -6.123031769111886e-017
vn 0 1 -6.123031769111886e-017
vn 0 1 -6.123031769111886e-017
vn 0 1 -6.123031769111886e-017
vn 0 1 -6.123031769111886e-017
vn 0 1 -6.123031769111886e-017
vn 0 1 -6.123031769111886e-017
vn 0 1 -6.123031769111886e-017
vn 0 1 -6.123031769111886e-017
vn 0 1 -6.123031769111886e-017
vn 0 1 -6.123031769111886e-017
vn 0 1 -6.123031769111886e-017
vn 0 1 -6.123031769111886e-017
vn 0 1 -6.123031769111886e-017
vn 0 1 -6.123031769111886e-017
vn 0 1 -6.123031769111886e-017
vn 0 1 -6.123031769111886e-017
vn 0 1 -6.123031769111886e-017
vn 0 1 -6.123031769111886e-017
vn 0 1 -6.123031769111886e-017
vn 0 1 -6.123031769111886e-017
vn 0 1 -6.123031769111886e-017
vn 0 1 -6.123031769111886e-017
vn 0 1 -6.123031769111886e-017
vn 0 1 -6.123031769111886e-017
vn 0 1 -6.123031769111886e-017
vn 0 1 -6.123031769111886e-017
vn 0 1 -6.123031769111886e-017
vn 0 1 -6.123031769111886e-017
vn 0 1 -6.123031769111886e-017
vn 0 1 -6.123031769111886e-017
vn 0 1 -6.123031769111886e-017
vn 0 1 -6.123031769111886e-017
vn 0 1 -6.123031769111886e-017
vn 0 1 -6.123031769111886e-017
vn 0 1 -6.123031769111886e-017
vn 0 1 -6.123031769111886e-017
vn 0 1 -6.123031769111886e-017
vn 0 1 -6.123031769111886e-017
vn 0 1 -6.123031769111886e-017
vn 0 1 -6.123031769111886e-017
vn 0 1 -6.123031769111886e-017
vn 0 1 -6.123031769111886e-017
vn 0 1 -6.123031769111886e-017
vn 0 1 -6.123031769111886e-017
vn 0 1 -6.123031769111886e-017
vn 0 1 -6.123031769111886e-017
vn 0 1 -6.123031769111886e-017
vn 0 1 -6.123031769111886e-017
vn 0 1 -6.123031769111886e-017
vn 0 1 -6.123031769111886e-017
vn 0 1 -6.123031769111886e-017
vn 0 1 -6.123031769111886e-017
vn 0 1 -6.123031769111886e-017
vn 0 1 -6.123031769111886e-017
vn 0 1 -6.123031769111886e-017
vn 0 1 -6.123031769111886e-017
vn 0 1 -6.123031769111886e-017
vn 0 1 -6.123031769111886e-017
f 67/67/67 68/68/68 62/62/62 61/61/61
f 73/73/73 74/74/74 68/68/68 67/67/67
f 79/79/79 81/81/81 74/74/74 73/73/73
f 85/85/85 87/87/87 81/81/81 79/79/79
f 92/92/92 95/95/95 87/87/87 85/85/85
f 97/97/97 102/102/102 95/95/95 92/92/92
f 104/104/104 111/111/111 102/102/102 97/97/97
f 110/110/110 116/116/116 111/111/111 104/104/104
f 113/113/113 118/118/118 116/116/116 110/110/110
f 114/114/114 119/119/119 118/118/118 113/113/113
f 112/112/112 117/117/117 119/119/119 114/114/114
f 109/109/109 115/115/115 117/117/117 112/112/112
f 101/101/101 108/108/108 115/115/115 109/109/109
f 94/94/94 98/98/98 108/108/108 101/101/101
f 88/88/88 90/90/90 98/98/98 94/94/94
f 82/82/82 84/84/84 90/90/90 88/88/88
f 76/76/76 77/77/77 84/84/84 82/82/82
f 70/70/70 71/71/71 77/77/77 76/76/76
f 64/64/64 65/65/65 71/71/71 70/70/70
f 56/56/56 55/55/55 65/65/65 64/64/64
f 50/50/50 49/49/49 55/55/55 56/56/56
f 44/44/44 43/43/43 49/49/49 50/50/50
f 38/38/38 36/36/36 43/43/43 44/44/44
f 31/31/31 29/29/29 36/36/36 38/38/38
f 26/26/26 22/22/22 29/29/29 31/31/31
f 19/19/19 12/12/12 22/22/22 26/26/26
f 11/11/11 5/5/5 12/12/12 19/19/19
f 8/8/8 3/3/3 5/5/5 11/11/11
f 6/6/6 1/1/1 3/3/3 8/8/8
f 7/7/7 2/2/2 1/1/1 6/6/6
f 10/10/10 4/4/4 2/2/2 7/7/7
f 16/16/16 9/9/9 4/4/4 10/10/10
f 23/23/23 18/18/18 9/9/9 16/16/16
f 28/28/28 25/25/25 18/18/18 23/23/23
f 35/35/35 33/33/33 25/25/25 28/28/28
f 41/41/41 40/40/40 33/33/33 35/35/35
f 47/47/47 46/46/46 40/40/40 41/41/41
f 53/53/53 52/52/52 46/46/46 47/47/47
f 59/59/59 52/52/52 53/53/53
f 66/66/66 67/67/67 61/61/61 60/60/60
f 72/72/72 73/73/73 67/67/67 66/66/66
f 78/78/78 79/79/79 73/73/73 72/72/72
f 83/83/83 85/85/85 79/79/79 78/78/78
f 89/89/89 92/92/92 85/85/85 83/83/83
f 93/93/93 97/97/97 92/92/92 89/89/89
f 99/99/99 104/104/104 97/97/97 93/93/93
f 103/103/103 110/110/110 104/104/104 99/99/99
f 106/106/106 113/113/113 110/110/110 103/103/103
f 107/107/107 114/114/114 113/113/113 106/106/106
f 105/105/105 112/112/112 114/114/114 107/107/107
f 100/100/100 109/109/109 112/112/112 105/105/105
f 96/96/96 101/101/101 109/109/109 100/100/100
f 91/91/91 94/94/94 101/101/101 96/96/96
f 86/86/86 88/88/88 94/94/94 91/91/91
f 80/80/80 82/82/82 88/88/88 86/86/86
f 75/75/75 76/76/76 82/82/82 80/80/80
f 69/69/69 70/70/70 76/76/76 75/75/75
f 63/63/63 64/64/64 70/70/70 69/69/69
f 57/57/57 56/56/56 64/64/64 63/63/63
f 51/51/51 50/50/50 56/56/56 57/57/57
f 45/45/45 44/44/44 50/50/50 51/51/51
f 39/39/39 38/38/38 44/44/44 45/45/45
f 34/34/34 31/31/31 38/38/38 39/39/39
f 30/30/30 26/26/26 31/31/31 34/34/34
f 24/24/24 19/19/19 26/26/26 30/30/30
f 20/20/20 11/11/11 19/19/19 24/24/24
f 15/15/15 8/8/8 11/11/11 20/20/20
f 13/13/13 6/6/6 8/8/8 15/15/15
f 14/14/14 7/7/7 6/6/6 13/13/13
f 17/17/17 10/10/10 7/7/7 14/14/14
f 21/21/21 16/16/16 10/10/10 17/17/17
f 27/27/27 23/23/23 16/16/16 21/21/21
f 32/32/32 28/28/28 23/23/23 27/27/27
f 37/37/37 35/35/35 28/28/28 32/32/32
f 42/42/42 41/41/41 35/35/35 37/37/37
f 48/48/48 47/47/47 41/41/41 42/42/42
f 54/54/54 53/53/53 47/47/47 48/48/48
f 58/58/58 53/53/53 54/54/54
