# Rhino

mtllib acol.mtl
g Default Default_Modelo
usemtl Modelo
v 5.965590000152588 -0.6440929770469666 0.0002603680186439306
v 5.982456207275391 0.6505662202835083 0.01889115571975708
v 5.600547313690186 -0.5992001295089722 0.3406522870063782
v 5.7334303855896 1.834644794464111 0.02111455053091049
v 5.698182582855225 -1.87984824180603 0.0002603442408144474
v 5.366771221160889 -1.770036697387695 0.3242189288139343
v 4.970405101776123 0.1627355515956879 0.7944406867027283
v 5.212331771850586 2.972324848175049 0.000260533532127738
v 5.195045471191406 -3.002437114715576 0.0002614798431750387
v 4.908793449401856 2.799751281738281 0.3242489993572235
v 4.547366619110107 2.085583209991455 0.7786353230476379
v 4.8928542137146 -2.827246427536011 0.3243612349033356
v 4.599914073944092 -1.954832553863525 0.7800884246826172
v 4.335836410522461 0.2609283328056335 0.9825494289398193
v 4.466756820678711 4.006396293640137 0.0002614801051095128
v 4.466674327850342 -4.006489276885986 0.0002617858408484608
v 4.189022064208984 3.764818906784058 0.3409125208854675
v 4.206914901733398 -3.772866249084473 0.3244123160839081
v 3.766759634017944 2.371073246002197 0.9664626121520996
v 4.036730766296387 -1.689528942108154 0.9747507572174072
v 3.976906299591065 -0.4293789863586426 1.00097930431366
v 3.976565599441528 0.4325233697891235 1.000969529151917
v 3.999994516372681 -0.09056044369935989 1
v 3.991790533065796 0.2717098593711853 1
v 3.671401262283325 3.362758874893189 0.7732223868370056
v 3.463578224182129 -3.638037919998169 0.7625212073326111
v 3.975229501724243 -0.4539236724376679 1
v 3.949881315231323 0.6381240487098694 1
v 3.915423154830933 -0.8237032294273377 1
v 3.87157130241394 1.010053873062134 1
v 3.809737682342529 1.219036102294922 1.000980734825134
v 3.798641920089722 -1.253184080123901 1.000979900360107
v 3.818107128143311 -1.196480870246887 1
v 3.754863500595093 1.382290601730347 1
v 3.681749105453491 -1.566733121871948 1
v 3.641093492507935 1.656030774116516 1
v 3.5058913230896 1.928470253944397 1
v 3.553136110305786 -1.837178349494934 1
v 3.474753618240356 1.981473326683044 1.000979065895081
v 3.532538652420044 4.850186347961426 0.0002618780708871782
v 3.463229656219482 -2.00154709815979 1.000976085662842
v 3.525876045227051 -4.85503101348877 0.0002614324330352247
v 3.32646369934082 4.568045616149902 0.3244311809539795
v 3.314117193222046 -4.553953647613525 0.3409048318862915
v 3.403334856033325 -2.104214429855347 1
v 3.123259782791138 -3.03064775466919 0.9773600101470947
v 3.291288375854492 2.275508165359497 1
v 3.170049905776978 -2.441594839096069 1
v 2.435800075531006 4.367204666137695 0.7789064645767212
v 3.039991617202759 2.601751327514648 1
v 2.977721929550171 2.670827627182007 1.000975608825684
v 2.977667331695557 -2.670888662338257 1.000974655151367
v 2.901563405990601 -2.75528883934021 1
v 2.75528883934021 2.901563405990601 1
v 2.678289890289307 -2.970986843109131 1
v 2.109631776809692 3.834317207336426 0.9747712016105652
v 1.990557432174683 -3.944725036621094 0.9708676338195801
v 2.441594839096069 3.170049905776978 1
v 2.441594839096069 -3.170049905776978 1
v 2.472662210464478 5.467088222503662 0.0002601309679448605
v 2.328389167785645 5.149195194244385 0.3241938054561615
v 2.421899557113648 -5.511370658874512 0.0213362593203783
v 2.354933738708496 3.233331918716431 1.000974178314209
v 2.35049319267273 -3.23656177520752 1.000975608825684
v 2.104214429855347 3.403334856033325 1
v 2.104214429855347 -3.403334856033325 1
v 1.561060786247253 -4.758828163146973 0.7761256694793701
v 1.837178349494934 3.553136110305786 1
v 1.837178349494934 -3.553136110305786 1
v 1.648378372192383 3.644584894180298 1.000980615615845
v 1.566733121871948 3.681749105453491 1
v 1.566733121871948 -3.681749105453491 1
v 1.609203219413757 -3.662050724029541 1.000980377197266
v 1.196480870246887 3.818107128143311 1
v 1.196480870246887 -3.818107128143311 1
v 1.267500758171082 5.864858627319336 0.0002609198272693902
v 1.184371709823608 5.506434440612793 0.3407761454582214
v 1.234789848327637 -5.886568069458008 0.0156158460304141
v 0.3647139668464661 4.95905351638794 0.7952712774276733
v 0.2636094093322754 4.34417200088501 0.9796911478042603
v 0.8237032294273377 3.915423154830933 1
v 0.8237032294273377 -3.915423154830933 1
v 0.844967782497406 3.909754514694214 1.000977396965027
v 0.8213405013084412 -3.914786100387573 1.000977158546448
v 0.4539236724376679 3.975229501724243 1
v 0.4539236724376679 -3.975229501724243 1
v 0.09056044369935989 3.999994516372681 1
v 0.09056044369935989 -3.999994516372681 1
v 5.010774475522339e-005 6.017613887786865 0.01876902393996716
v 3.115822622135056e-008 4.00001859664917 1.00097382068634
v -1.887579173853737e-006 -4.000022888183594 1.001171708106995
v 0.0001940998336067423 -4.689252853393555 0.8957435488700867
v -4.853637619817164e-006 -5.490935802459717 0.4557382166385651
v -6.918153303558938e-006 -6.000195026397705 0.0001949220895767212
v 2.688659878913313e-005 -4.000103950500488 1.005270004272461
v 0.000234946419368498 -4.562312126159668 0.9432949423789978
v 0.0005661746254190803 -5.498502731323242 0.4363274276256561
v -5.160017735761358e-006 -6.000310897827148 0.0003119893372058868
v -0.2717098593711853 3.991790533065796 1
v -0.2717098593711853 -3.991790533065796 1
v -0.6381240487098694 3.949881315231323 1
v -0.6381240487098694 -3.949881315231323 1
v -0.8213405013084412 3.914786100387573 1.000977158546448
v -0.844967782497406 -3.909754514694214 1.000977396965027
v -1.39147162437439 4.150409698486328 0.9727743268013001
v -1.010053873062134 3.87157130241394 1
v -1.010053873062134 -3.87157130241394 1
v -1.644842505455017 4.724752426147461 0.7803208231925964
v -0.9897314310073853 -4.86728572845459 0.7799042463302612
v -1.236071944236755 5.891603469848633 0.02117365598678589
v -1.184543013572693 -5.506052970886231 0.3410266935825348
v -1.267500758171082 -5.864858627319336 0.0002609193325042725
v -1.382290601730347 3.754863500595093 1
v -1.382290601730347 -3.754863500595093 1
v -1.609203219413757 3.662050724029541 1.000980377197266
v -1.648378372192383 -3.644584894180298 1.000980615615845
v -1.656030774116516 3.641093492507935 1
v -1.656030774116516 -3.641093492507935 1
v -2.109631776809692 -3.834317207336426 0.9747712016105652
v -1.928470253944397 3.5058913230896 1
v -1.928470253944397 -3.5058913230896 1
v -2.462836265563965 -4.361634254455566 0.775587797164917
v -2.420648813247681 5.508684158325195 0.01817774772644043
v -2.275508165359497 3.291288375854492 1
v -2.275508165359497 -3.291288375854492 1
v -2.328389167785645 -5.149195194244385 0.3241938054561615
v -2.35049319267273 3.23656177520752 1.000975608825684
v -2.354933738708496 -3.233331918716431 1.000974178314209
v -2.6896653175354 3.396957159042358 0.9803754687309265
v -2.472662210464478 -5.467088222503662 0.0002601295709609985
v -2.601751327514648 3.039991617202759 1
v -2.601751327514648 -3.039991617202759 1
v -3.401520729064941 3.66981840133667 0.7771984934806824
v -2.901563405990601 2.75528883934021 1
v -2.828427076339722 -2.828427076339722 1
v -3.039991617202759 -2.601751327514648 1
v -2.977667331695557 2.670888662338257 1.000974655151367
v -2.977721929550171 -2.670827627182007 1.000975608825684
v -3.794913768768311 -2.405507326126099 0.9607834219932556
v -3.170049905776978 2.441594839096069 1
v -3.314117193222046 4.553953647613525 0.3409048318862915
v -3.544177055358887 -4.866034030914307 0.02122655510902405
v -3.95445704460144 1.999797463417053 0.9703611135482788
v -3.291288375854492 -2.275508165359497 1
v -3.403334856033325 2.104214429855347 1
v -3.637811422348023 -3.396041870117188 0.7794073224067688
v -3.5058913230896 -1.928470253944397 1
v -3.463229656219482 2.00154709815979 1.000976085662842
v -3.474753618240356 -1.981473326683044 1.000979065895081
v -3.525876045227051 4.85503101348877 0.0002614334225654602
v -3.553136110305786 1.837178349494934 1
v -3.681749105453491 1.566733121871948 1
v -3.641093492507935 -1.656030774116516 1
v -3.754863500595093 -1.382290601730347 1
v -3.818107128143311 1.196480870246887 1
v -3.798641920089722 1.253184080123901 1.000979900360107
v -3.809737682342529 -1.219036102294922 1.000980734825134
v -3.87157130241394 -1.010053873062134 1
v -3.915423154830933 0.8237032294273377 1
v -3.949881315231323 -0.6381240487098694 1
v -4.335836410522461 -0.2609283328056335 0.9825494289398193
v -3.975229501724243 0.4539236724376679 1
v -3.976565599441528 -0.4325233697891235 1.000969529151917
v -3.976906299591065 0.4293789863586426 1.00097930431366
v -3.991790533065796 -0.2717098593711853 1
v -4.636421203613281 1.954341888427734 0.7588144540786743
v -3.999994516372681 0.09056044369935989 1
v -4.376745700836182 -2.473129034042358 0.7500312924385071
v -4.206914901733398 3.772866249084473 0.3244123160839081
v -4.477590084075928 -4.016029834747315 0.01571151614189148
v -4.91959285736084 -1.075379610061646 0.758731484413147
v -4.466674327850342 4.006489276885986 0.0002617873251438141
v -4.945143699645996 0.4732678830623627 0.7794483304023743
v -4.8928542137146 2.827246427536011 0.3243612349033356
v -5.226995468139648 -2.980641841888428 0.01822784543037415
v -5.366771221160889 1.770036697387695 0.3242189288139343
v -5.195045471191406 3.002437114715576 0.0002614781260490418
v -5.7334303855896 -1.834644794464111 0.02111455798149109
v -5.982456207275391 -0.6505662202835083 0.01889115571975708
v -5.600547313690186 0.5992001295089722 0.3406522870063782
v -5.698182582855225 1.87984824180603 0.0002603456377983093
v -5.965590000152588 0.6440929770469666 0.0002603679895401001
vn 0.6721376180648804 -0.1024656221270561 0.7333019971847534
vn 0.6186623573303223 0.04021879658102989 0.7846269011497498
vn 0.5995131134986877 -0.07083003968000412 0.7972246408462524
vn 0.5751771330833435 0.1923768073320389 0.7950864434242249
vn 0.6386798024177551 -0.2345948070287705 0.7328392863273621
vn 0.6072090268135071 -0.1858700215816498 0.7724956274032593
vn 0.4493017792701721 0.02044161409139633 0.8931461572647095
vn 0.5848020315170288 0.3474873304367065 0.7329795956611633
vn 0.57686448097229 -0.3608018457889557 0.7328365445137024
vn 0.5459302067756653 0.3278935253620148 0.7710032463073731
vn 0.4136789441108704 0.1942332983016968 0.8894622921943665
vn 0.5370579361915588 -0.3045545220375061 0.786648154258728
vn 0.4070867300033569 -0.1687623858451843 0.897663414478302
vn 0.1512037366628647 0.01431069429963827 0.9883990287780762
vn 0.521908700466156 0.4356134235858917 0.7333840727806091
vn 0.489659994840622 -0.4722644090652466 0.7329388856887817
vn 0.4575692117214203 0.4113618731498718 0.7882967591285706
vn 0.4815547168254852 -0.41441810131073 0.7722452282905579
vn 0.1558162569999695 0.113720066845417 0.981218159198761
vn 0.1590952575206757 -0.05928825959563255 0.9854813814163208
vn 0.0694199874997139 -0.009462938643991947 0.9975426197052002
vn 0.05408358573913574 0.006048263050615788 0.9985181093215942
vn 0 0 1
vn 0 0 1
vn 0.3301058113574982 0.3143738210201263 0.890055775642395
vn 0.3140619099140167 -0.3234074413776398 0.8926212787628174
vn 0 0 1
vn 0 0 1
vn 0 0 1
vn 0 0 1
vn 0.07563212513923645 0.02602984569966793 0.9967959523200989
vn 0.07598796486854553 -0.0207548551261425 0.9968926906585693
vn 0 0 1
vn 0 0 1
vn 0 0 1
vn 0 0 1
vn 0 0 1
vn 0 0 1
vn 0.06717845797538757 0.03798000887036324 0.9970178604125977
vn 0.4201032519340515 0.5350795388221741 0.7329414486885071
vn 0.06779095530509949 -0.04081522300839424 0.9968643188476563
vn 0.4079717099666596 -0.5432620644569397 0.7337747812271118
vn 0.3601712286472321 0.5063284635543823 0.78352290391922
vn 0.3679400086402893 -0.4999869465827942 0.783985435962677
vn 0 0 1
vn 0.129123866558075 -0.1197472661733627 0.9843716621398926
vn 0 0 1
vn 0 0 1
vn 0.2056675106287003 0.3835597038269043 0.900323748588562
vn 0 0 1
vn 0.06492676585912705 0.06288382411003113 0.9959067106246948
vn 0.06019782647490501 -0.04763645678758621 0.9970491528511047
vn 0 0 1
vn 0 0 1
vn 0 0 1
vn 0.08137844502925873 0.1545286029577255 0.9846311211585999
vn 0.07858902215957642 -0.1866102665662766 0.9792856574058533
vn 0 0 1
vn 0 0 1
vn 0.3006923794746399 0.6103476881980896 0.7328436374664307
vn 0.2489483803510666 0.5842620730400085 0.7724393606185913
vn 0.2681817412376404 -0.5621459484100342 0.7823493480682373
vn 0.04766936600208283 0.06292100250720978 0.9968793988227844
vn 0.04999030381441116 -0.07337284833192825 0.9960508942604065
vn 0 0 1
vn 0 0 1
vn 0.1617284715175629 -0.4606747031211853 0.8727099895477295
vn 0 0 1
vn 0 0 1
vn 0.02880249544978142 0.07432407140731812 0.9968181252479553
vn 0 0 1
vn 0 0 1
vn 0.03959918022155762 -0.07582594454288483 0.996334433555603
vn 0 0 1
vn 0 0 1
vn 0.173094630241394 0.6575034856796265 0.7332990169525147
vn 0.1340068131685257 0.588642954826355 0.7972086668014526
vn 0.112715944647789 -0.6108420491218567 0.7836881875991821
vn 0.02740107104182243 0.4484977126121521 0.8933638334274292
vn 0.004523963667452335 0.1565889269113541 0.9876534938812256
vn 0 0 1
vn 0 0 1
vn 0.01746799983084202 0.07224052399396896 0.9972342848777771
vn 0.02208130061626434 -0.1340271085500717 0.9907315969467163
vn 0 0 1
vn 0 0 1
vn 0 0 1
vn 0 0 1
vn 0.02563910558819771 0.6196005940437317 0.784498393535614
vn -0.0004293728270567954 0.06205036863684654 0.9980729222297669
vn 0.01978084072470665 -0.1723454594612122 0.9848379492759705
vn 0.0427892804145813 -0.3015270829200745 0.9524970054626465
vn 0.06756620854139328 -0.5770362019538879 0.813918948173523
vn 0.0519724115729332 -0.6658047437667847 0.7443137168884277
vn -0.01676345616579056 -0.1095620766282082 0.9938386082649231
vn -0.03242434561252594 -0.2220194935798645 0.9745029807090759
vn -0.03958282619714737 -0.5634908676147461 0.8251734972000122
vn -0.06446919590234757 -0.6664953231811523 0.7427164316177368
vn 0 0 1
vn 0 0 1
vn 0 0 1
vn 0 0 1
vn -0.01421260461211205 0.0731121376156807 0.9972224235534668
vn -0.03354067355394363 -0.1310246288776398 0.9908115863800049
vn -0.07149436324834824 0.1790729016065598 0.9812346696853638
vn 0 0 1
vn 0 0 1
vn -0.1497108191251755 0.429424524307251 0.8906072378158569
vn -0.08528611063957214 -0.4249647557735443 0.9011832475662231
vn -0.1064678505063057 0.5745354890823364 0.8115254640579224
vn -0.12694151699543 -0.5969986319541931 0.7921354174613953
vn -0.1666672080755234 -0.6590267419815064 0.7334206104278565
vn 0 0 1
vn 0 0 1
vn -0.03066317737102509 0.06641875207424164 0.9973205924034119
vn -0.03377687558531761 -0.1013757735490799 0.9942746758460999
vn 0 0 1
vn 0 0 1
vn -0.08144024759531021 -0.1552094221115112 0.9845189452171326
vn 0 0 1
vn 0 0 1
vn -0.2174384891986847 -0.3925326764583588 0.8936658501625061
vn -0.2713350057601929 0.5632589459419251 0.7804592847824097
vn 0 0 1
vn 0 0 1
vn -0.2489263266324997 -0.5864012241363525 0.7708237767219544
vn -0.03650325536727905 0.05099091306328774 0.9980317950248718
vn -0.04766936600208283 -0.06292100250720978 0.9968793988227844
vn -0.0915563777089119 0.1169124692678452 0.9889129996299744
vn -0.2685019373893738 -0.6250354647636414 0.732964813709259
vn 0 0 1
vn 0 0 1
vn -0.2974303066730499 0.3065628111362457 0.9041872024536133
vn 0 0 1
vn 0 0 1
vn 0 0 1
vn -0.0572291761636734 0.04839060083031654 0.997187614440918
vn -0.0667552724480629 -0.06421340256929398 0.9957009553909302
vn -0.1764634698629379 -0.1174788847565651 0.9772713780403137
vn 0 0 1
vn -0.3690966367721558 0.5028433799743652 0.7816113233566284
vn -0.3532492518424988 -0.5007167458534241 0.7902516722679138
vn -0.1710913330316544 0.08345399051904678 0.9817144274711609
vn 0 0 1
vn 0 0 1
vn -0.3475304245948792 -0.3362946510314941 0.875287652015686
vn 0 0 1
vn -0.06229086592793465 0.03655826672911644 0.9973882436752319
vn -0.07154545933008194 -0.0404534675180912 0.9966166615486145
vn -0.406607449054718 0.5442500114440918 0.7337998747825623
vn 0 0 1
vn 0 0 1
vn 0 0 1
vn 0 0 1
vn 0 0 1
vn -0.081278957426548 0.02269735373556614 0.996432900428772
vn -0.07816855609416962 -0.02724887244403362 0.9965677261352539
vn 0 0 1
vn 0 0 1
vn 0 0 1
vn -0.1570533961057663 -0.006498345639556646 0.987568736076355
vn 0 0 1
vn -0.05408358573913574 -0.006048263050615788 0.9985181093215942
vn -0.0694199874997139 0.009462938643991947 0.9975426197052002
vn 0 0 1
vn -0.4437741935253143 0.1793574541807175 0.8780064582824707
vn 0 0 1
vn -0.4336196184158325 -0.2577346563339233 0.8634505867958069
vn -0.4809951484203339 0.4140878915786743 0.7727709412574768
vn -0.4539517760276794 -0.3816380798816681 0.8051584959030151
vn -0.4609367847442627 -0.1197123527526856 0.8793214559555054
vn -0.489659994840622 0.4722644090652466 0.7329388856887817
vn -0.4339698255062103 0.02845332771539688 0.9004780054092407
vn -0.5363637208938599 0.304144024848938 0.7872803807258606
vn -0.5221338868141174 -0.2691552340984345 0.8092784881591797
vn -0.6079131960868835 0.186121329665184 0.7718810439109802
vn -0.57686448097229 0.3608018457889557 0.7328365445137024
vn -0.5633567571640015 -0.1796124130487442 0.8064543008804321
vn -0.6065148115158081 -0.04187979176640511 0.7939684391021729
vn -0.5980543494224548 0.07285147160291672 0.7981376051902771
vn -0.6386798024177551 0.2345948070287705 0.7328392863273621
vn -0.6721376776695252 0.1024656295776367 0.7333019375801086
f 88//88 86//86 37//37
f 86//86 82//82 37//37
f 82//82 75//75 37//37
f 75//75 72//72 37//37
f 72//72 69//69 37//37
f 69//69 66//66 37//37
f 66//66 59//59 37//37
f 59//59 55//55 37//37
f 55//55 53//53 37//37
f 53//53 48//48 37//37
f 48//48 45//45 37//37
f 45//45 38//38 37//37
f 38//38 35//35 37//37
f 35//35 33//33 37//37
f 33//33 29//29 37//37
f 29//29 27//27 37//37
f 27//27 23//23 37//37
f 23//23 24//24 37//37
f 24//24 28//28 37//37
f 28//28 30//30 37//37
f 30//30 34//34 37//37
f 34//34 36//36 37//37
f 47//47 50//50 37//37
f 50//50 54//54 37//37
f 54//54 58//58 37//37
f 58//58 65//65 37//37
f 65//65 68//68 37//37
f 68//68 71//71 37//37
f 71//71 74//74 37//37
f 74//74 81//81 37//37
f 81//81 85//85 37//37
f 85//85 87//87 37//37
f 87//87 99//99 37//37
f 99//99 101//101 37//37
f 101//101 106//106 37//37
f 106//106 113//113 37//37
f 113//113 117//117 37//37
f 117//117 120//120 37//37
f 120//120 124//124 37//37
f 124//124 131//131 37//37
f 131//131 134//134 37//37
f 134//134 140//140 37//37
f 140//140 145//145 37//37
f 145//145 151//151 37//37
f 151//151 152//152 37//37
f 152//152 155//155 37//37
f 155//155 159//159 37//37
f 159//159 162//162 37//37
f 162//162 167//167 37//37
f 167//167 165//165 37//37
f 165//165 160//160 37//37
f 160//160 158//158 37//37
f 158//158 154//154 37//37
f 154//154 153//153 37//37
f 153//153 147//147 37//37
f 147//147 144//144 37//37
f 144//144 136//136 37//37
f 136//136 135//135 37//37
f 135//135 132//132 37//37
f 132//132 125//125 37//37
f 125//125 121//121 37//37
f 121//121 118//118 37//37
f 118//118 114//114 37//37
f 114//114 107//107 37//37
f 107//107 102//102 37//37
f 102//102 100//100 37//37
f 100//100 88//88 37//37
f 98//98 97//97 111//111
f 98//98 111//111 112//112
f 97//97 109//109 111//111
f 97//97 96//96 109//109
f 95//95 104//104 96//96
f 112//112 111//111 126//126
f 112//112 126//126 130//130
f 111//111 109//109 122//122
f 111//111 122//122 126//126
f 109//109 96//96 119//119
f 109//109 119//119 122//122
f 96//96 104//104 116//116
f 96//96 116//116 119//119
f 130//130 126//126 142//142
f 126//126 122//122 142//142
f 119//119 116//116 128//128
f 142//142 122//122 146//146
f 142//142 146//146 170//170
f 122//122 119//119 139//139
f 122//122 139//139 146//146
f 119//119 128//128 138//138
f 119//119 138//138 139//139
f 170//170 146//146 168//168
f 170//170 168//168 175//175
f 146//146 139//139 168//168
f 139//139 138//138 149//149
f 175//175 168//168 171//171
f 175//175 171//171 178//178
f 168//168 139//139 171//171
f 139//139 149//149 157//157
f 139//139 157//157 161//161
f 178//178 171//171 179//179
f 171//171 139//139 161//161
f 161//161 157//157 163//163
f 179//179 180//180 182//182
f 179//179 171//171 173//173
f 179//179 173//173 180//180
f 171//171 161//161 173//173
f 161//161 163//163 164//164
f 182//182 180//180 176//176
f 182//182 176//176 181//181
f 180//180 173//173 166//166
f 180//180 166//166 176//176
f 173//173 161//161 143//143
f 173//173 143//143 166//166
f 161//161 164//164 156//156
f 161//161 156//156 143//143
f 181//181 176//176 174//174
f 181//181 174//174 177//177
f 176//176 166//166 174//174
f 143//143 156//156 148//148
f 177//177 174//174 169//169
f 177//177 169//169 172//172
f 174//174 166//166 133//133
f 174//174 133//133 169//169
f 166//166 143//143 133//133
f 143//143 148//148 137//137
f 143//143 137//137 129//129
f 172//172 169//169 141//141
f 172//172 141//141 150//150
f 169//169 133//133 141//141
f 133//133 143//143 129//129
f 129//129 137//137 127//127
f 150//150 141//141 123//123
f 141//141 133//133 108//108
f 141//141 108//108 123//123
f 133//133 129//129 105//105
f 133//133 105//105 108//108
f 129//129 127//127 115//115
f 129//129 115//115 105//105
f 123//123 108//108 110//110
f 105//105 115//115 103//103
f 105//105 103//103 80//80
f 110//110 108//108 79//79
f 110//110 79//79 89//89
f 108//108 105//105 80//80
f 108//108 80//80 79//79
f 80//80 103//103 90//90
f 89//89 77//77 76//76
f 89//89 79//79 77//77
f 80//80 90//90 83//83
f 76//76 77//77 61//61
f 76//76 61//61 60//60
f 77//77 79//79 49//49
f 77//77 49//49 61//61
f 79//79 80//80 56//56
f 79//79 56//56 49//49
f 80//80 83//83 70//70
f 80//80 70//70 56//56
f 60//60 61//61 43//43
f 60//60 43//43 40//40
f 61//61 49//49 43//43
f 56//56 70//70 63//63
f 40//40 43//43 17//17
f 40//40 17//17 15//15
f 43//43 49//49 25//25
f 43//43 25//25 17//17
f 49//49 56//56 19//19
f 49//49 19//19 25//25
f 56//56 63//63 51//51
f 56//56 51//51 19//19
f 15//15 17//17 10//10
f 15//15 10//10 8//8
f 17//17 25//25 11//11
f 17//17 11//11 10//10
f 25//25 19//19 11//11
f 19//19 51//51 39//39
f 8//8 10//10 4//4
f 10//10 11//11 4//4
f 19//19 39//39 31//31
f 19//19 31//31 14//14
f 4//4 11//11 7//7
f 4//4 7//7 2//2
f 11//11 19//19 14//14
f 11//11 14//14 7//7
f 14//14 31//31 22//22
f 2//2 3//3 1//1
f 2//2 7//7 3//3
f 14//14 22//22 21//21
f 1//1 3//3 6//6
f 1//1 6//6 5//5
f 3//3 7//7 13//13
f 3//3 13//13 6//6
f 7//7 14//14 20//20
f 7//7 20//20 13//13
f 14//14 21//21 32//32
f 14//14 32//32 20//20
f 5//5 6//6 12//12
f 5//5 12//12 9//9
f 6//6 13//13 12//12
f 20//20 32//32 41//41
f 9//9 12//12 18//18
f 9//9 18//18 16//16
f 12//12 13//13 26//26
f 12//12 26//26 18//18
f 13//13 20//20 46//46
f 13//13 46//46 26//26
f 20//20 41//41 52//52
f 20//20 52//52 46//46
f 16//16 18//18 44//44
f 16//16 44//44 42//42
f 18//18 26//26 44//44
f 26//26 46//46 57//57
f 46//46 52//52 64//64
f 42//42 44//44 62//62
f 44//44 26//26 67//67
f 44//44 67//67 62//62
f 26//26 57//57 67//67
f 46//46 64//64 73//73
f 46//46 73//73 57//57
f 62//62 67//67 78//78
f 57//57 73//73 84//84
f 78//78 93//93 94//94
f 78//78 67//67 93//93
f 67//67 92//92 93//93
f 67//67 57//57 92//92
f 57//57 84//84 91//91
f 57//57 91//91 92//92
