# file generated by UVMapper
# NumVerts/NumTVerts/NumVNormals/NumFacets   165/161/165/152
# NumGroups/NumMaterials/NumRegions   1/0/0
# x/y/color/ppu   512/512/0/50.00000000

v -1.00000000  0.00000000  0.00000000
v -0.98046732  0.00000000 -0.19668202
v -0.97968227  0.00000000  0.20055588
v -0.92579377  0.00000000  0.37802902
v -0.92024899  0.00000000 -0.39133331
v -0.89062500  0.25000000  0.00000000
v -0.89062500  0.25000000  0.00000000
v -0.88702232  0.25000000 -0.08002661
v -0.88702232  0.25000000  0.08002661
v -0.87575632  0.25000000 -0.16206084
v -0.87575632  0.25000000  0.16206084
v -0.87322873  0.25000000 -0.17516993
v -0.87252951  0.25000000  0.17862009
v -0.85624593  0.25000000 -0.24506278
v -0.85624593  0.25000000  0.24506278
v -0.83528310  0.00000000  0.54982007
v -0.82809269  0.25000000 -0.32783434
v -0.82809269  0.25000000  0.32783434
v -0.82774270  0.00000000 -0.56110781
v -0.82453507  0.25000000  0.33668208
v -0.81959677  0.25000000 -0.34853122
v -0.79112792  0.25000000 -0.40905926
v -0.79112792  0.25000000  0.40905926
v -0.74544913  0.25000000 -0.48735869
v -0.74544913  0.25000000  0.48735869
v -0.74392402  0.25000000  0.48968351
v -0.73720837  0.25000000 -0.49973667
v -0.71070546  0.00000000  0.70348972
v -0.70348972  0.00000000 -0.71070546
v -0.69143957  0.25000000 -0.56135929
v -0.69143957  0.25000000  0.56135929
v -0.66796875  0.25000000 -0.44531250
v -0.66796875  0.25000000 -0.22265625
v -0.66796875  0.25000000  0.00000000
v -0.66796875  0.25000000  0.22265625
v -0.66796875  0.25000000  0.44531250
v -0.63297206  0.25000000  0.62654549
v -0.62976700  0.25000000 -0.62976700
v -0.62976700  0.25000000  0.62976700
v -0.62654549  0.25000000 -0.63297206
v -0.56135929  0.25000000 -0.69143957
v -0.56135929  0.25000000  0.69143957
v -0.56110781  0.00000000  0.82774270
v -0.54982007  0.00000000 -0.83528310
v -0.49973667  0.25000000  0.73720837
v -0.48968351  0.25000000 -0.74392402
v -0.48735869  0.25000000 -0.74544913
v -0.48735869  0.25000000  0.74544913
v -0.44531250  0.25000000 -0.66796875
v -0.44531250  0.25000000 -0.44531250
v -0.44531250  0.25000000 -0.22265625
v -0.44531250  0.25000000  0.00000000
v -0.44531250  0.25000000  0.22265625
v -0.44531250  0.25000000  0.44531250
v -0.44531250  0.25000000  0.66796875
v -0.40905926  0.25000000 -0.79112792
v -0.40905926  0.25000000  0.79112792
v -0.39133331  0.00000000  0.92024899
v -0.37802902  0.00000000 -0.92579377
v -0.34853122  0.25000000  0.81959677
v -0.33668208  0.25000000 -0.82453507
v -0.32783434  0.25000000 -0.82809269
v -0.32783434  0.25000000  0.82809269
v -0.24506278  0.25000000 -0.85624593
v -0.24506278  0.25000000  0.85624593
v -0.22265625  0.25000000 -0.66796875
v -0.22265625  0.25000000 -0.44531250
v -0.22265625  0.25000000  0.44531250
v -0.22265625  0.25000000  0.66796875
v -0.20055588  0.00000000 -0.97968227
v -0.19668202  0.00000000  0.98046732
v -0.17862009  0.25000000 -0.87252951
v -0.17516993  0.25000000  0.87322873
v -0.16206084  0.25000000 -0.87575632
v -0.16206084  0.25000000  0.87575632
v -0.08002661  0.25000000 -0.88702232
v -0.08002661  0.25000000  0.88702232
v -0.00000000  0.25000000 -0.89062500
v -0.00000000  0.25000000 -0.89062500
v -0.00000000  0.25000000 -0.66796875
v -0.00000000  0.25000000 -0.44531250
v  0.00000000  0.25000000  0.00000000
v  0.00000000  0.25000000  0.44531250
v  0.00000000  0.25000000  0.66796875
v  0.00000000  0.25000000  0.89062500
v  0.00000000  0.25000000  0.89062500
v -0.00000000  0.00000000 -1.00000000
v  0.00000000  0.00000000  1.00000000
v  0.08002661  0.25000000 -0.88702232
v  0.08002661  0.25000000  0.88702232
v  0.16206084  0.25000000 -0.87575632
v  0.16206084  0.25000000  0.87575632
v  0.17516993  0.25000000 -0.87322873
v  0.17862009  0.25000000  0.87252951
v  0.19668202  0.00000000 -0.98046732
v  0.20055588  0.00000000  0.97968227
v  0.22265625  0.25000000 -0.66796875
v  0.22265625  0.25000000 -0.44531250
v  0.22265625  0.25000000  0.44531250
v  0.22265625  0.25000000  0.66796875
v  0.24506278  0.25000000 -0.85624593
v  0.24506278  0.25000000  0.85624593
v  0.32783434  0.25000000 -0.82809269
v  0.32783434  0.25000000  0.82809269
v  0.33668208  0.25000000  0.82453507
v  0.34853122  0.25000000 -0.81959677
v  0.37802902  0.00000000  0.92579377
v  0.39133331  0.00000000 -0.92024899
v  0.40905926  0.25000000 -0.79112792
v  0.40905926  0.25000000  0.79112792
v  0.44531250  0.25000000 -0.66796875
v  0.44531250  0.25000000 -0.44531250
v  0.44531250  0.25000000 -0.22265625
v  0.44531250  0.25000000 -0.00000000
v  0.44531250  0.25000000  0.22265625
v  0.44531250  0.25000000  0.44531250
v  0.44531250  0.25000000  0.66796875
v  0.48735869  0.25000000 -0.74544913
v  0.48735869  0.25000000  0.74544913
v  0.48968351  0.25000000  0.74392402
v  0.49973667  0.25000000 -0.73720837
v  0.54982007  0.00000000  0.83528310
v  0.56110781  0.00000000 -0.82774270
v  0.56135929  0.25000000 -0.69143957
v  0.56135929  0.25000000  0.69143957
v  0.62654549  0.25000000  0.63297206
v  0.62976700  0.25000000 -0.62976700
v  0.62976700  0.25000000  0.62976700
v  0.63297206  0.25000000 -0.62654549
v  0.66796875  0.25000000 -0.44531250
v  0.66796875  0.25000000 -0.22265625
v  0.66796875  0.25000000 -0.00000000
v  0.66796875  0.25000000  0.22265625
v  0.66796875  0.25000000  0.44531250
v  0.69143957  0.25000000 -0.56135929
v  0.69143957  0.25000000  0.56135929
v  0.70348972  0.00000000  0.71070546
v  0.71070546  0.00000000 -0.70348972
v  0.73720837  0.25000000  0.49973667
v  0.74392402  0.25000000 -0.48968351
v  0.74544913  0.25000000 -0.48735869
v  0.74544913  0.25000000  0.48735869
v  0.79112792  0.25000000 -0.40905926
v  0.79112792  0.25000000  0.40905926
v  0.81959677  0.25000000  0.34853122
v  0.82453507  0.25000000 -0.33668208
v  0.82774270  0.00000000  0.56110781
v  0.82809269  0.25000000 -0.32783434
v  0.82809269  0.25000000  0.32783434
v  0.83528310  0.00000000 -0.54982007
v  0.85624593  0.25000000 -0.24506278
v  0.85624593  0.25000000  0.24506278
v  0.87252951  0.25000000 -0.17862009
v  0.87322873  0.25000000  0.17516993
v  0.87575632  0.25000000 -0.16206084
v  0.87575632  0.25000000  0.16206084
v  0.88702232  0.25000000 -0.08002661
v  0.88702232  0.25000000  0.08002661
v  0.89062500  0.25000000 -0.00000000
v  0.89062500  0.25000000 -0.00000000
v  0.92024899  0.00000000  0.39133331
v  0.92579377  0.00000000 -0.37802902
v  0.97968227  0.00000000 -0.20055588
v  0.98046732  0.00000000  0.19668202
v  1.00000000  0.00000000 -0.00000000

vt  0.41068995  0.93626475
vt  0.33165896  0.91226757
vt  0.39972204  0.98984110
vt  0.31098551  0.96289688
vt  0.25515825  0.87196201
vt  0.22508997  0.91764152
vt  0.18672729  0.81648600
vt  0.14825511  0.85535276
vt  0.08612865  0.78055394
vt  0.09020162  0.67426562
vt  0.13139582  0.74986833
vt  0.06338561  0.58758497
vt  0.03987551  0.69566667
vt  0.00976634  0.59834099
vt  0.06373525  0.41068995
vt  0.05468750  0.50000000
vt  0.00000000  0.50000000
vt  0.01015890  0.39972207
vt  0.08773243  0.33165896
vt  0.03710312  0.31098551
vt  0.12803799  0.25515825
vt  0.08235848  0.22508997
vt  0.14464724  0.14825514
vt  0.25013167  0.13139582
vt  0.18351400  0.18672726
vt  0.21944606  0.08612865
vt  0.32573438  0.09020162
vt  0.30433333  0.03987551
vt  0.40165901  0.00976634
vt  0.50000000  0.05468750
vt  0.41241503  0.06338564
vt  0.58931005  0.06373525
vt  0.50000000  0.00000000
vt  0.66834104  0.08773246
vt  0.60027793  0.01015887
vt  0.68901449  0.03710312
vt  0.74484175  0.12803799
vt  0.77491003  0.08235845
vt  0.86860418  0.25013167
vt  0.81327274  0.18351397
vt  0.85174486  0.14464727
vt  0.91387135  0.21944609
vt  0.93661436  0.41241503
vt  0.90979838  0.32573438
vt  0.96012449  0.30433333
vt  0.99023366  0.40165898
vt  1.00000000  0.50000000
vt  0.94531250  0.50000000
vt  0.91226754  0.66834104
vt  0.93626475  0.58931005
vt  0.98984113  0.60027796
vt  0.96289688  0.68901449
vt  0.87196201  0.74484175
vt  0.81648603  0.81327271
vt  0.91764155  0.77491003
vt  0.85535273  0.85174489
vt  0.74986833  0.86860418
vt  0.78055391  0.91387135
vt  0.58758497  0.93661439
vt  0.67426562  0.90979838
vt  0.69566667  0.96012449
vt  0.59834102  0.99023366
vt  0.50000000  1.00000000
vt  0.27734375  0.16601563
vt  0.38867188  0.27734375
vt  0.50000000  0.50000000
vt  0.27734375  0.27734375
vt  0.27734375  0.38867188
vt  0.72265625  0.27734375
vt  0.50000000  0.27734375
vt  0.83398438  0.38867188
vt  0.72265625  0.38867188
vt  0.72265625  0.50000000
vt  0.61132813  0.27734375
vt  0.72265625  0.61132813
vt  0.72265625  0.72265625
vt  0.61132813  0.72265625
vt  0.61132813  0.83398438
vt  0.27734375  0.50000000
vt  0.16601563  0.72265625
vt  0.27734375  0.61132813
vt  0.38867188  0.72265625
vt  0.50000000  0.72265625
vt  0.45998669  0.94351113
vt  0.41896957  0.93787813
vt  0.50000000  0.83398438
vt  0.37746859  0.92812300
vt  0.38867188  0.83398438
vt  0.33608282  0.91404635
vt  0.29547036  0.89556396
vt  0.25632066  0.87272453
vt  0.21932036  0.84571981
vt  0.18511653  0.81488347
vt  0.15428019  0.78067964
vt  0.12727547  0.74367934
vt  0.10443604  0.70452964
vt  0.08595365  0.66391718
vt  0.07187700  0.62253141
vt  0.06212187  0.58103043
vt  0.05648887  0.54001331
vt  0.05648887  0.45998669
vt  0.16601563  0.50000000
vt  0.06212187  0.41896957
vt  0.07187700  0.37746862
vt  0.08595365  0.33608282
vt  0.10443604  0.29547036
vt  0.16601563  0.27734375
vt  0.12727547  0.25632066
vt  0.15428019  0.21932036
vt  0.18511653  0.18511650
vt  0.21932036  0.15428022
vt  0.25632066  0.12727544
vt  0.29547036  0.10443604
vt  0.33608282  0.08595365
vt  0.37746859  0.07187703
vt  0.41896957  0.06212184
vt  0.38867188  0.16601563
vt  0.45998669  0.05648884
vt  0.50000000  0.16601563
vt  0.54001331  0.05648884
vt  0.62253138  0.07187703
vt  0.61132813  0.16601563
vt  0.66391718  0.08595365
vt  0.74367934  0.12727544
vt  0.78067964  0.15428022
vt  0.81488350  0.18511650
vt  0.84571978  0.21932036
vt  0.87272456  0.25632066
vt  0.91404635  0.33608282
vt  0.92812297  0.37746862
vt  0.93787816  0.41896957
vt  0.94351116  0.45998669
vt  0.94351116  0.54001331
vt  0.83398438  0.50000000
vt  0.93787816  0.58103043
vt  0.92812297  0.62253141
vt  0.91404635  0.66391718
vt  0.87272456  0.74367934
vt  0.84571978  0.78067964
vt  0.83398438  0.72265625
vt  0.78067964  0.84571981
vt  0.74367934  0.87272453
vt  0.70452964  0.89556396
vt  0.66391718  0.91404635
vt  0.62253138  0.92812300
vt  0.54001331  0.94351113
vt  0.50000000  0.94531250
vt  0.16601563  0.38867188
vt  0.72265625  0.16601563
vt  0.70452964  0.10443604
vt  0.58103043  0.06212184
vt  0.83398438  0.27734375
vt  0.89556396  0.29547036
vt  0.83398438  0.61132813
vt  0.89556396  0.70452964
vt  0.81488350  0.81488347
vt  0.58103043  0.93787813
vt  0.72265625  0.83398438
vt  0.16601563  0.61132813
vt  0.27734375  0.72265625
vt  0.27734375  0.83398438

vn -0.91615731  0.40081882  0.00000000
vn -0.89826232  0.40081882 -0.18019168
vn -0.89754307  0.40081882  0.18374074
vn -0.84817272  0.40081882  0.34633404
vn -0.84309286  0.40081882 -0.35852289
vn -0.91615731  0.40081882  0.00000000
vn  0.00000000  1.00000000  0.00000000
vn  0.00000000  1.00000000  0.00000000
vn  0.00000000  1.00000000  0.00000000
vn  0.00000000  1.00000000  0.00000000
vn  0.00000000  1.00000000  0.00000000
vn -0.89826232  0.40081882 -0.18019168
vn -0.89754307  0.40081882  0.18374074
vn  0.00000000  1.00000000  0.00000000
vn  0.00000000  1.00000000  0.00000000
vn -0.76525074  0.40081882  0.50372171
vn  0.00000000  1.00000000  0.00000000
vn  0.00000000  1.00000000  0.00000000
vn -0.75834256  0.40081882 -0.51406306
vn -0.84817272  0.40081882  0.34633404
vn -0.84309286  0.40081882 -0.35852289
vn  0.00000000  1.00000000  0.00000000
vn  0.00000000  1.00000000  0.00000000
vn  0.00000000  1.00000000  0.00000000
vn  0.00000000  1.00000000  0.00000000
vn -0.76525074  0.40081882  0.50372171
vn -0.75834256  0.40081882 -0.51406306
vn -0.65111804  0.40081882  0.64450723
vn -0.64450723  0.40081882 -0.65111804
vn  0.00000000  1.00000000  0.00000000
vn  0.00000000  1.00000000  0.00000000
vn  0.00000000  1.00000000  0.00000000
vn  0.00000000  1.00000000  0.00000000
vn  0.00000000  1.00000000  0.00000000
vn  0.00000000  1.00000000  0.00000000
vn  0.00000000  1.00000000  0.00000000
vn -0.65111804  0.40081882  0.64450723
vn  0.00000000  1.00000000  0.00000000
vn  0.00000000  1.00000000  0.00000000
vn -0.64450723  0.40081882 -0.65111804
vn  0.00000000  1.00000000  0.00000000
vn  0.00000000  1.00000000  0.00000000
vn -0.51406306  0.40081882  0.75834256
vn -0.50372171  0.40081882 -0.76525074
vn -0.51406306  0.40081882  0.75834256
vn -0.50372171  0.40081882 -0.76525074
vn  0.00000000  1.00000000  0.00000000
vn  0.00000000  1.00000000  0.00000000
vn  0.00000000  1.00000000  0.00000000
vn  0.00000000  1.00000000  0.00000000
vn  0.00000000  1.00000000  0.00000000
vn  0.00000000  1.00000000  0.00000000
vn  0.00000000  1.00000000  0.00000000
vn  0.00000000  1.00000000  0.00000000
vn  0.00000000  1.00000000  0.00000000
vn  0.00000000  1.00000000  0.00000000
vn  0.00000000  1.00000000  0.00000000
vn -0.35852289  0.40081882  0.84309286
vn -0.34633404  0.40081882 -0.84817272
vn -0.35852289  0.40081882  0.84309286
vn -0.34633404  0.40081882 -0.84817272
vn  0.00000000  1.00000000  0.00000000
vn  0.00000000  1.00000000  0.00000000
vn  0.00000000  1.00000000  0.00000000
vn  0.00000000  1.00000000  0.00000000
vn  0.00000000  1.00000000  0.00000000
vn  0.00000000  1.00000000  0.00000000
vn  0.00000000  1.00000000  0.00000000
vn  0.00000000  1.00000000  0.00000000
vn -0.18374074  0.40081882 -0.89754307
vn -0.18019168  0.40081882  0.89826232
vn -0.18374074  0.40081882 -0.89754307
vn -0.18019168  0.40081882  0.89826232
vn  0.00000000  1.00000000  0.00000000
vn  0.00000000  1.00000000  0.00000000
vn  0.00000000  1.00000000  0.00000000
vn  0.00000000  1.00000000  0.00000000
vn  0.00000000  1.00000000  0.00000000
vn -0.00000000  0.40081882 -0.91615731
vn  0.00000000  1.00000000  0.00000000
vn  0.00000000  1.00000000  0.00000000
vn  0.00000000  1.00000000  0.00000000
vn  0.00000000  1.00000000  0.00000000
vn  0.00000000  1.00000000  0.00000000
vn  0.00000000  1.00000000  0.00000000
vn  0.00000000  0.40081882  0.91615731
vn -0.00000000  0.40081882 -0.91615731
vn  0.00000000  0.40081882  0.91615731
vn  0.00000000  1.00000000  0.00000000
vn  0.00000000  1.00000000  0.00000000
vn  0.00000000  1.00000000  0.00000000
vn  0.00000000  1.00000000  0.00000000
vn  0.18019168  0.40081882 -0.89826232
vn  0.18374074  0.40081882  0.89754307
vn  0.18019168  0.40081882 -0.89826232
vn  0.18374074  0.40081882  0.89754307
vn  0.00000000  1.00000000  0.00000000
vn  0.00000000  1.00000000  0.00000000
vn  0.00000000  1.00000000  0.00000000
vn  0.00000000  1.00000000  0.00000000
vn  0.00000000  1.00000000  0.00000000
vn  0.00000000  1.00000000  0.00000000
vn  0.00000000  1.00000000  0.00000000
vn  0.00000000  1.00000000  0.00000000
vn  0.34633404  0.40081882  0.84817272
vn  0.35852289  0.40081882 -0.84309286
vn  0.34633404  0.40081882  0.84817272
vn  0.35852289  0.40081882 -0.84309286
vn  0.00000000  1.00000000  0.00000000
vn  0.00000000  1.00000000  0.00000000
vn  0.00000000  1.00000000  0.00000000
vn  0.00000000  1.00000000  0.00000000
vn  0.00000000  1.00000000  0.00000000
vn  0.00000000  1.00000000  0.00000000
vn  0.00000000  1.00000000  0.00000000
vn  0.00000000  1.00000000  0.00000000
vn  0.00000000  1.00000000  0.00000000
vn  0.00000000  1.00000000  0.00000000
vn  0.00000000  1.00000000  0.00000000
vn  0.50372171  0.40081882  0.76525074
vn  0.51406306  0.40081882 -0.75834256
vn  0.50372171  0.40081882  0.76525074
vn  0.51406306  0.40081882 -0.75834256
vn  0.00000000  1.00000000  0.00000000
vn  0.00000000  1.00000000  0.00000000
vn  0.64450723  0.40081882  0.65111804
vn  0.00000000  1.00000000  0.00000000
vn  0.00000000  1.00000000  0.00000000
vn  0.65111804  0.40081882 -0.64450723
vn  0.00000000  1.00000000  0.00000000
vn  0.00000000  1.00000000  0.00000000
vn  0.00000000  1.00000000  0.00000000
vn  0.00000000  1.00000000  0.00000000
vn  0.00000000  1.00000000  0.00000000
vn  0.00000000  1.00000000  0.00000000
vn  0.00000000  1.00000000  0.00000000
vn  0.64450723  0.40081882  0.65111804
vn  0.65111804  0.40081882 -0.64450723
vn  0.75834256  0.40081882  0.51406306
vn  0.76525074  0.40081882 -0.50372171
vn  0.00000000  1.00000000  0.00000000
vn  0.00000000  1.00000000  0.00000000
vn  0.00000000  1.00000000  0.00000000
vn  0.00000000  1.00000000  0.00000000
vn  0.84309286  0.40081882  0.35852289
vn  0.84817272  0.40081882 -0.34633404
vn  0.75834256  0.40081882  0.51406306
vn  0.00000000  1.00000000  0.00000000
vn  0.00000000  1.00000000  0.00000000
vn  0.76525074  0.40081882 -0.50372171
vn  0.00000000  1.00000000  0.00000000
vn  0.00000000  1.00000000  0.00000000
vn  0.89754307  0.40081882 -0.18374074
vn  0.89826232  0.40081882  0.18019168
vn  0.00000000  1.00000000  0.00000000
vn  0.00000000  1.00000000  0.00000000
vn  0.00000000  1.00000000  0.00000000
vn  0.00000000  1.00000000  0.00000000
vn  0.00000000  1.00000000  0.00000000
vn  0.91615731  0.40081882 -0.00000000
vn  0.84309286  0.40081882  0.35852289
vn  0.84817272  0.40081882 -0.34633404
vn  0.89754307  0.40081882 -0.18374074
vn  0.89826232  0.40081882  0.18019168
vn  0.91615731  0.40081882 -0.00000000

g botao
f 72/1/72 79/147/79 87/63/87 70/3/70
f 61/2/61 72/1/72 70/3/70 59/4/59
f 46/5/46 61/2/61 59/4/59 44/6/44
f 40/7/40 46/5/46 44/6/44 29/8/29
f 27/11/27 40/7/40 29/8/29 19/9/19
f 21/10/21 27/11/27 19/9/19 5/13/5
f 12/12/12 21/10/21 5/13/5 2/14/2
f 6/16/6 12/12/12 2/14/2 1/17/1
f 13/15/13 6/16/6 1/17/1 3/18/3
f 20/19/20 13/15/13 3/18/3 4/20/4
f 26/21/26 20/19/20 4/20/4 16/22/16
f 37/25/37 26/21/26 16/22/16 28/23/28
f 45/24/45 37/25/37 28/23/28 43/26/43
f 60/27/60 45/24/45 43/26/43 58/28/58
f 73/31/73 60/27/60 58/28/58 71/29/71
f 86/30/86 73/31/73 71/29/71 88/33/88
f 94/32/94 86/30/86 88/33/88 96/35/96
f 105/34/105 94/32/94 96/35/96 107/36/107
f 120/37/120 105/34/105 107/36/107 122/38/122
f 126/40/126 120/37/120 122/38/122 137/41/137
f 139/39/139 126/40/126 137/41/137 147/42/147
f 145/44/145 139/39/139 147/42/147 161/45/161
f 154/43/154 145/44/145 161/45/161 164/46/164
f 160/48/160 154/43/154 164/46/164 165/47/165
f 153/50/153 160/48/160 165/47/165 163/51/163
f 146/49/146 153/50/153 163/51/163 162/52/162
f 140/53/140 146/49/146 162/52/162 150/55/150
f 129/54/129 140/53/140 150/55/150 138/56/138
f 121/57/121 129/54/129 138/56/138 123/58/123
f 106/60/106 121/57/121 123/58/123 108/61/108
f 93/59/93 106/60/106 108/61/108 95/62/95
f 79/147/79 93/59/93 95/62/95 87/63/87
f 69/117/69 84/119/84 83/70/83 68/65/68
f 55/64/55 69/117/69 68/65/68 54/67/54
f 53/68/53 54/67/54 68/65/68
f 68/65/68 83/70/83 82/66/82
f 82/66/82 52/79/52 53/68/53
f 53/68/53 68/65/68 82/66/82
f 36/107/36 54/67/54 53/68/53 35/148/35
f 35/148/35 53/68/53 52/79/52 34/102/34
f 100/122/100 117/149/117 116/69/116 99/74/99
f 84/119/84 100/122/100 99/74/99 83/70/83
f 116/69/116 134/152/134 133/71/133 115/72/115
f 115/72/115 133/71/133 132/134/132 114/73/114
f 99/74/99 116/69/116 115/72/115
f 115/72/115 114/73/114 82/66/82
f 82/66/82 83/70/83 99/74/99
f 99/74/99 115/72/115 82/66/82
f 113/75/113 112/76/112 98/77/98
f 98/77/98 81/83/81 82/66/82
f 82/66/82 114/73/114 113/75/113
f 113/75/113 98/77/98 82/66/82
f 114/73/114 132/134/132 131/154/131 113/75/113
f 113/75/113 131/154/131 130/140/130 112/76/112
f 81/83/81 98/77/98 97/78/97 80/86/80
f 98/77/98 112/76/112 111/158/111 97/78/97
f 34/102/34 52/79/52 51/81/51 33/159/33
f 33/159/33 51/81/51 50/160/50 32/80/32
f 67/82/67 50/160/50 51/81/51
f 51/81/51 52/79/52 82/66/82
f 82/66/82 81/83/81 67/82/67
f 67/82/67 51/81/51 82/66/82
f 50/160/50 67/82/67 66/88/66 49/161/49
f 67/82/67 81/83/81 80/86/80 66/88/66
f 78/147/78 76/84/76 80/86/80
f 76/84/76 74/85/74 80/86/80
f 74/85/74 64/87/64 66/88/66
f 64/87/64 62/89/62 66/88/66
f 62/89/62 56/90/56 66/88/66
f 56/90/56 47/91/47 49/161/49
f 47/91/47 41/92/41 49/161/49
f 41/92/41 38/93/38 49/161/49
f 38/93/38 30/94/30 32/80/32
f 30/94/30 24/95/24 32/80/32
f 24/95/24 22/96/22 32/80/32
f 22/96/22 17/97/17 33/159/33
f 17/97/17 14/98/14 33/159/33
f 14/98/14 10/99/10 33/159/33
f 10/99/10 8/100/8 34/102/34
f 8/100/8 7/16/7 34/102/34
f 7/16/7 9/101/9 34/102/34
f 9/101/9 11/103/11 34/102/34
f 11/103/11 15/104/15 35/148/35
f 15/104/15 18/105/18 35/148/35
f 18/105/18 23/106/23 35/148/35
f 23/106/23 25/108/25 36/107/36
f 25/108/25 31/109/31 36/107/36
f 31/109/31 39/110/39 36/107/36
f 39/110/39 42/111/42 55/64/55
f 42/111/42 48/112/48 55/64/55
f 48/112/48 57/113/57 55/64/55
f 57/113/57 63/114/63 69/117/69
f 63/114/63 65/115/65 69/117/69
f 65/115/65 75/116/75 69/117/69
f 75/116/75 77/118/77 84/119/84
f 77/118/77 85/30/85 84/119/84
f 85/30/85 90/120/90 84/119/84
f 90/120/90 92/151/92 84/119/84
f 92/151/92 102/121/102 100/122/100
f 102/121/102 104/123/104 100/122/100
f 104/123/104 110/150/110 100/122/100
f 110/150/110 119/124/119 117/149/117
f 119/124/119 125/125/125 117/149/117
f 125/125/125 128/126/128 117/149/117
f 128/126/128 136/127/136 134/152/134
f 136/127/136 142/128/142 134/152/134
f 142/128/142 144/153/144 134/152/134
f 144/153/144 149/129/149 133/71/133
f 149/129/149 152/130/152 133/71/133
f 152/130/152 156/131/156 133/71/133
f 156/131/156 158/132/158 132/134/132
f 158/132/158 159/48/159 132/134/132
f 159/48/159 157/133/157 132/134/132
f 157/133/157 155/135/155 132/134/132
f 155/135/155 151/136/151 131/154/131
f 151/136/151 148/137/148 131/154/131
f 148/137/148 143/155/143 131/154/131
f 143/155/143 141/138/141 130/140/130
f 141/138/141 135/139/135 130/140/130
f 135/139/135 127/156/127 130/140/130
f 127/156/127 124/141/124 111/158/111
f 124/141/124 118/142/118 111/158/111
f 118/142/118 109/143/109 111/158/111
f 109/143/109 103/144/103 97/78/97
f 103/144/103 101/145/101 97/78/97
f 101/145/101 91/157/91 97/78/97
f 91/157/91 89/146/89 80/86/80
f 89/146/89 78/147/78 80/86/80
f 84/119/84 69/117/69 75/116/75
f 69/117/69 55/64/55 57/113/57
f 55/64/55 54/67/54 39/110/39
f 54/67/54 36/107/36 39/110/39
f 36/107/36 35/148/35 23/106/23
f 35/148/35 34/102/34 11/103/11
f 117/149/117 100/122/100 110/150/110
f 116/69/116 117/149/117 128/126/128
f 100/122/100 84/119/84 92/151/92
f 134/152/134 116/69/116 128/126/128
f 133/71/133 134/152/134 144/153/144
f 132/134/132 133/71/133 156/131/156
f 131/154/131 132/134/132 155/135/155
f 130/140/130 131/154/131 143/155/143
f 112/76/112 130/140/130 127/156/127
f 80/86/80 97/78/97 91/157/91
f 111/158/111 112/76/112 127/156/127
f 97/78/97 111/158/111 109/143/109
f 34/102/34 33/159/33 10/99/10
f 32/80/32 50/160/50 38/93/38
f 33/159/33 32/80/32 22/96/22
f 49/161/49 66/88/66 56/90/56
f 50/160/50 49/161/49 38/93/38
f 66/88/66 80/86/80 74/85/74
