# Rhino

g GOL_
v -3 2.5 -1.25
v -3 1 -3
v -3.125 2.5 -1.25
v -3.125 1 -3
v -3 2.375 -1.125
v -3 0.875 -2.875
v -3.125 2.375 -1.125
v -3.125 0.875 -2.875
v 3.125 1 -3
v 3.125 0 -3
v 3 1 -3
v 3 0.125 -3
v 3 0 -3
v -3 1 -3
v -3 0.125 -3
v -3 0 -3
v -3.125 1 -3
v -3.125 0 -3
v 3.125 2.5 -1.25
v 3.125 1 -3
v 3 2.5 -1.25
v 3 1 -3
v 3.125 2.5 0
v 3.125 2.5 -1.25
v 3 2.5 0
v 3 2.5 -0.125
v 3 2.5 -1.25
v -3 2.5 0
v -3 2.5 -0.125
v -3 2.5 -1.25
v -3.125 2.5 0
v -3.125 2.5 -1.25
v 3.125 2.375 -0.125
v 3.125 0.125 -0.125
v 3 2.5 -0.125
v 3 2.375 -0.125
v 3 0.125 -0.125
v -3 2.5 -0.125
v -3 2.375 -0.125
v -3 0.125 -0.125
v -3.125 2.375 -0.125
v -3.125 0.125 -0.125
v 3.125 0.125 -0.125
v 3.125 0.125 -2.875
v 3 0.125 -0.125
v 3 0.125 -2.875
v 3 0.125 -3
v -3 0.125 -0.125
v -3 0.125 -2.875
v -3 0.125 -3
v -3.125 0.125 -0.125
v -3.125 0.125 -2.875
v 3.125 0.875 -2.875
v 3.125 0.125 -2.875
v 3 0.875 -2.875
v 3 0.125 -2.875
v 3 0 -2.875
v -3 0.875 -2.875
v -3 0.125 -2.875
v -3 0 -2.875
v -3.125 0.875 -2.875
v -3.125 0.125 -2.875
v 3.125 2.375 -1.125
v 3.125 0.875 -2.875
v 3 2.375 -1.125
v 3 0.875 -2.875
v 3.125 2.375 -0.125
v 3.125 2.375 -1.125
v 3 2.375 0
v 3 2.375 -0.125
v 3 2.375 -1.125
v -3 2.375 0
v -3 2.375 -0.125
v -3 2.375 -1.125
v -3.125 2.375 -0.125
v -3.125 2.375 -1.125
v 3.125 2.5 0
v 3.125 2.5 -1.25
v 3.125 2.375 -0.125
v 3.125 2.375 -1.125
v 3.125 1 -3
v 3.125 0.875 -2.875
v 3.125 0.125 -0.125
v 3.125 0.125 -2.875
v 3.125 0 0
v 3.125 0 -3
v -3.125 2.5 0
v -3.125 2.5 -1.25
v -3.125 2.375 -0.125
v -3.125 2.375 -1.125
v -3.125 1 -3
v -3.125 0.875 -2.875
v -3.125 0.125 -0.125
v -3.125 0.125 -2.875
v -3.125 0 0
v -3.125 0 -3
v -3 2.5 0
v -3 2.5 -1.25
v -3 2.375 -0.125
v -3 2.375 -1.125
v -3 1 -3
v -3 0.875 -2.875
v -3 0.125 -0.125
v -3 0.125 -2.875
v -3 0 0
v -3 0 -3
v 3 2.5 0
v 3 2.5 -1.25
v 3 2.375 -0.125
v 3 2.375 -1.125
v 3 1 -3
v 3 0.875 -2.875
v 3 0.125 -0.125
v 3 0.125 -2.875
v 3 0 0
v 3 0 -3
v 3.125 2.5 0
v 3.125 0 0
v 3 2.375 0
v 3 0 0
v -3 2.375 0
v -3 0 0
v -3.125 2.5 0
v -3.125 0 0
vt 0.08375000953674316 0.735156238079071
vt 0.08375000953674316 0.839062511920929
vt 0.0803571492433548 0.735156238079071
vt 0.0803571492433548 0.839062511920929
vt 0.4841071367263794 0.727734386920929
vt 0.4841071367263794 0.8316406011581421
vt 0.487500011920929 0.727734386920929
vt 0.487500011920929 0.8316406011581421
vt 0.25 0.9281250238418579
vt 0.25 0.987500011920929
vt 0.2466071546077728 0.9281250238418579
vt 0.2466071546077728 0.9800781011581421
vt 0.2466071546077728 0.987500011920929
vt 0.08375000953674316 0.9281250238418579
vt 0.08375000953674316 0.9800781011581421
vt 0.08375000953674316 0.987500011920929
vt 0.0803571492433548 0.9281250238418579
vt 0.0803571492433548 0.987500011920929
vt 0.25 0.735156238079071
vt 0.25 0.839062511920929
vt 0.2466071546077728 0.735156238079071
vt 0.2466071546077728 0.839062511920929
vt 0.25 0.660937488079071
vt 0.25 0.735156238079071
vt 0.2466071546077728 0.660937488079071
vt 0.2466071546077728 0.6683593988418579
vt 0.2466071546077728 0.735156238079071
vt 0.08375000953674316 0.660937488079071
vt 0.08375000953674316 0.6683593988418579
vt 0.08375000953674316 0.735156238079071
vt 0.0803571492433548 0.660937488079071
vt 0.0803571492433548 0.735156238079071
vt 0.25 0.8464844226837158
vt 0.25 0.9800781011581421
vt 0.2466071546077728 0.839062511920929
vt 0.2466071546077728 0.8464844226837158
vt 0.2466071546077728 0.9800781011581421
vt 0.08375000953674316 0.839062511920929
vt 0.08375000953674316 0.8464844226837158
vt 0.08375000953674316 0.9800781011581421
vt 0.0803571492433548 0.8464844226837158
vt 0.0803571492433548 0.9800781011581421
vt 0.25 0.6683593988418579
vt 0.25 0.8316406011581421
vt 0.2466071546077728 0.6683593988418579
vt 0.2466071546077728 0.8316406011581421
vt 0.2466071546077728 0.839062511920929
vt 0.08375000953674316 0.6683593988418579
vt 0.08375000953674316 0.8316406011581421
vt 0.08375000953674316 0.839062511920929
vt 0.0803571492433548 0.6683593988418579
vt 0.0803571492433548 0.8316406011581421
vt 0.25 0.564453125
vt 0.25 0.5199218392372131
vt 0.2466071546077728 0.564453125
vt 0.2466071546077728 0.5199218392372131
vt 0.2466071546077728 0.512499988079071
vt 0.08375000953674316 0.564453125
vt 0.08375000953674316 0.5199218392372131
vt 0.08375000953674316 0.512499988079071
vt 0.0803571492433548 0.564453125
vt 0.0803571492433548 0.5199218392372131
vt 0.3178571462631226 0.727734386920929
vt 0.3178571462631226 0.8316406011581421
vt 0.3212499916553497 0.727734386920929
vt 0.3212499916553497 0.8316406011581421
vt 0.3178571462631226 0.6683593988418579
vt 0.3178571462631226 0.727734386920929
vt 0.3212499916553497 0.660937488079071
vt 0.3212499916553497 0.6683593988418579
vt 0.3212499916553497 0.727734386920929
vt 0.4841071367263794 0.660937488079071
vt 0.4841071367263794 0.6683593988418579
vt 0.4841071367263794 0.727734386920929
vt 0.487500011920929 0.6683593988418579
vt 0.487500011920929 0.727734386920929
vt 0.25 0.660937488079071
vt 0.25 0.735156238079071
vt 0.2533928453922272 0.6683593988418579
vt 0.2533928453922272 0.727734386920929
vt 0.2907142639160156 0.839062511920929
vt 0.2941071391105652 0.8316406011581421
vt 0.314464271068573 0.6683593988418579
vt 0.314464271068573 0.8316406011581421
vt 0.3178571462631226 0.660937488079071
vt 0.3178571462631226 0.839062511920929
vt 0.0803571492433548 0.660937488079071
vt 0.0803571492433548 0.735156238079071
vt 0.07696429640054703 0.6683593988418579
vt 0.07696429640054703 0.727734386920929
vt 0.03964285925030708 0.839062511920929
vt 0.03624999895691872 0.8316406011581421
vt 0.01589285954833031 0.6683593988418579
vt 0.01589285954833031 0.8316406011581421
vt 0.01250000018626452 0.660937488079071
vt 0.01250000018626452 0.839062511920929
vt 0.25 0.660937488079071
vt 0.25 0.735156238079071
vt 0.2533928453922272 0.6683593988418579
vt 0.2533928453922272 0.727734386920929
vt 0.2907142639160156 0.839062511920929
vt 0.2941071391105652 0.8316406011581421
vt 0.314464271068573 0.6683593988418579
vt 0.314464271068573 0.8316406011581421
vt 0.3178571462631226 0.660937488079071
vt 0.3178571462631226 0.839062511920929
vt 0.0803571492433548 0.660937488079071
vt 0.0803571492433548 0.735156238079071
vt 0.07696429640054703 0.6683593988418579
vt 0.07696429640054703 0.727734386920929
vt 0.03964285925030708 0.839062511920929
vt 0.03624999895691872 0.8316406011581421
vt 0.01589285954833031 0.6683593988418579
vt 0.01589285954833031 0.8316406011581421
vt 0.01250000018626452 0.660937488079071
vt 0.01250000018626452 0.839062511920929
vt 0.25 0.660937488079071
vt 0.25 0.512499988079071
vt 0.2466071546077728 0.653515636920929
vt 0.2466071546077728 0.512499988079071
vt 0.08375000953674316 0.653515636920929
vt 0.08375000953674316 0.512499988079071
vt 0.0803571492433548 0.660937488079071
vt 0.0803571492433548 0.512499988079071
vn 0 0.7592566013336182 -0.650791347026825
vn 0 0.7592566013336182 -0.650791347026825
vn 0 0.7592566013336182 -0.650791347026825
vn 0 0.7592566013336182 -0.650791347026825
vn 0 -0.7592566013336182 0.650791347026825
vn 0 -0.7592566013336182 0.650791347026825
vn 0 -0.7592566013336182 0.650791347026825
vn 0 -0.7592566013336182 0.650791347026825
vn 0 0 -1
vn 0 0 -1
vn 0 0 -1
vn 0 0 -1
vn 0 0 -1
vn 0 0 -1
vn 0 0 -1
vn 0 0 -1
vn 0 0 -1
vn 0 0 -1
vn 0 0.7592566013336182 -0.650791347026825
vn 0 0.7592566013336182 -0.650791347026825
vn 0 0.7592566013336182 -0.650791347026825
vn 0 0.7592566013336182 -0.650791347026825
vn 0 1 0
vn 0 1 0
vn 0 1 0
vn 0 1 0
vn 0 1 0
vn 0 1 0
vn 0 1 0
vn 0 1 0
vn 0 1 0
vn 0 1 0
vn 0 0 -1
vn 0 0 -1
vn 0 0 -1
vn 0 0 -1
vn 0 0 -1
vn 0 0 -1
vn 0 0 -1
vn 0 0 -1
vn 0 0 -1
vn 0 0 -1
vn 0 1 0
vn 0 1 0
vn 0 1 0
vn 0 1 0
vn 0 1 0
vn 0 1 0
vn 0 1 0
vn 0 1 0
vn 0 1 0
vn 0 1 0
vn 0 0 1
vn 0 0 1
vn 0 0 1
vn 0 0 1
vn 0 0 1
vn 0 0 1
vn 0 0 1
vn 0 0 1
vn 0 0 1
vn 0 0 1
vn 0 -0.7592566013336182 0.650791347026825
vn 0 -0.7592566013336182 0.650791347026825
vn 0 -0.7592566013336182 0.650791347026825
vn 0 -0.7592566013336182 0.650791347026825
vn 0 -1 0
vn 0 -1 0
vn 0 -1 0
vn 0 -1 0
vn 0 -1 0
vn 0 -1 0
vn 0 -1 0
vn 0 -1 0
vn 0 -1 0
vn 0 -1 0
vn 1 0 0
vn 1 0 0
vn 1 0 0
vn 1 0 0
vn 1 0 0
vn 1 0 0
vn 1 0 0
vn 1 0 0
vn 1 0 0
vn 1 0 0
vn -1 0 0
vn -1 0 0
vn -1 0 0
vn -1 0 0
vn -1 0 0
vn -1 0 0
vn -1 0 0
vn -1 0 0
vn -1 0 0
vn -1 0 0
vn 1 0 0
vn 1 0 0
vn 1 0 0
vn 1 0 0
vn 1 0 0
vn 1 0 0
vn 1 0 0
vn 1 0 0
vn 1 0 0
vn 1 0 0
vn -1 0 0
vn -1 0 0
vn -1 0 0
vn -1 0 0
vn -1 0 0
vn -1 0 0
vn -1 0 0
vn -1 0 0
vn -1 0 0
vn -1 0 0
vn 0 0 1
vn 0 0 1
vn 0 0 1
vn 0 0 1
vn 0 0 1
vn 0 0 1
vn 0 0 1
vn 0 0 1
f 2/2/2 4/4/4 3/3/3 1/1/1
f 5/5/5 7/7/7 8/8/8 6/6/6
f 10/10/10 13/13/13 11/11/11 9/9/9
f 16/16/16 18/18/18 17/17/17 14/14/14
f 15/15/15 12/12/12 13/13/13 16/16/16
f 20/20/20 22/22/22 21/21/21 19/19/19
f 24/24/24 27/27/27 25/25/25 23/23/23
f 30/30/30 32/32/32 31/31/31 28/28/28
f 28/28/28 25/25/25 26/26/26 29/29/29
f 34/34/34 37/37/37 36/36/36 33/33/33
f 40/40/40 42/42/42 41/41/41 39/39/39
f 38/38/38 35/35/35 36/36/36 39/39/39
f 44/44/44 46/46/46 45/45/45 43/43/43
f 49/49/49 52/52/52 51/51/51 48/48/48
f 49/49/49 46/46/46 47/47/47 50/50/50
f 53/53/53 55/55/55 56/56/56 54/54/54
f 58/58/58 61/61/61 62/62/62 59/59/59
f 60/60/60 57/57/57 56/56/56 59/59/59
f 63/63/63 65/65/65 66/66/66 64/64/64
f 67/67/67 70/70/70 71/71/71 68/68/68
f 73/73/73 75/75/75 76/76/76 74/74/74
f 73/73/73 70/70/70 69/69/69 72/72/72
f 81/81/81 78/78/78 82/82/82
f 79/79/79 80/80/80 78/78/78
f 80/80/80 82/82/82 78/78/78
f 82/82/82 84/84/84 81/81/81
f 84/84/84 83/83/83 86/86/86
f 83/83/83 79/79/79 85/85/85
f 78/78/78 77/77/77 79/79/79
f 77/77/77 85/85/85 79/79/79
f 85/85/85 86/86/86 83/83/83
f 86/86/86 81/81/81 84/84/84
f 88/88/88 91/91/91 92/92/92
f 89/89/89 93/93/93 87/87/87
f 93/93/93 94/94/94 95/95/95
f 94/94/94 92/92/92 91/91/91
f 92/92/92 90/90/90 88/88/88
f 90/90/90 89/89/89 88/88/88
f 91/91/91 96/96/96 94/94/94
f 96/96/96 95/95/95 94/94/94
f 95/95/95 87/87/87 93/93/93
f 87/87/87 88/88/88 89/89/89
f 101/101/101 98/98/98 102/102/102
f 99/99/99 100/100/100 98/98/98
f 100/100/100 102/102/102 98/98/98
f 102/102/102 104/104/104 101/101/101
f 104/104/104 103/103/103 106/106/106
f 103/103/103 99/99/99 105/105/105
f 98/98/98 97/97/97 99/99/99
f 97/97/97 105/105/105 99/99/99
f 105/105/105 106/106/106 103/103/103
f 106/106/106 101/101/101 104/104/104
f 108/108/108 111/111/111 112/112/112
f 109/109/109 113/113/113 107/107/107
f 113/113/113 114/114/114 115/115/115
f 114/114/114 112/112/112 111/111/111
f 112/112/112 110/110/110 108/108/108
f 110/110/110 109/109/109 108/108/108
f 111/111/111 116/116/116 114/114/114
f 116/116/116 115/115/115 114/114/114
f 115/115/115 107/107/107 113/113/113
f 107/107/107 108/108/108 109/109/109
f 120/120/120 118/118/118 117/117/117 119/119/119
f 121/121/121 119/119/119 117/117/117 123/123/123
f 124/124/124 122/122/122 121/121/121 123/123/123
g GOL_REDE
v -3.0625 2.375 -0.125
v -3.0625 2.375 -1.125
v -3.0625 0.875 -2.875
v -3.0625 0.125 -0.125
v -3.0625 0.125 -2.875
v 3.0625 2.375 -0.125
v 3.0625 2.375 -1.125
v 3.0625 0.875 -2.875
v 3.0625 0.125 -0.125
v 3.0625 0.125 -2.875
v 3 0.9375 -2.9375
v 3 0.125 -2.9375
v -3 0.9375 -2.9375
v -3 0.125 -2.9375
v 3 2.4375 -1.1875
v 3 0.9375 -2.9375
v -3 2.4375 -1.1875
v -3 0.9375 -2.9375
v 3 2.4375 -0.125
v 3 2.4375 -1.1875
v -3 2.4375 -0.125
v -3 2.4375 -1.1875
vt 0.576964259147644 0.6683593988418579
vt 0.576964259147644 0.727734386920929
vt 0.5362499952316284 0.8316406011581421
vt 0.5158928632736206 0.6683593988418579
vt 0.5158928632736206 0.8316406011581421
vt 0.7533928155899048 0.6683593988418579
vt 0.7533928155899048 0.727734386920929
vt 0.7941071391105652 0.8316406011581421
vt 0.8144643306732178 0.6683593988418579
vt 0.8144643306732178 0.8316406011581421
vt 0.7466071844100952 0.568164050579071
vt 0.7466071844100952 0.5199218392372131
vt 0.5837500095367432 0.568164050579071
vt 0.5837500095367432 0.5199218392372131
vt 0.8212499618530273 0.7314453125
vt 0.8212499618530273 0.8353515863418579
vt 0.9841071367263794 0.7314453125
vt 0.9841071367263794 0.8353515863418579
vt 0.8212499618530273 0.6683593988418579
vt 0.8212499618530273 0.7314453125
vt 0.9841071367263794 0.6683593988418579
vt 0.9841071367263794 0.7314453125
vn -1 0 0
vn -1 0 0
vn -1 0 0
vn -1 0 0
vn -1 0 0
vn 1 0 0
vn 1 0 0
vn 1 0 0
vn 1 0 0
vn 1 0 0
vn 0 0 -1
vn 0 0 -1
vn 0 0 -1
vn 0 0 -1
vn 0 0.7592566013336182 -0.650791347026825
vn 0 0.7592566013336182 -0.650791347026825
vn 0 0.7592566013336182 -0.650791347026825
vn 0 0.7592566013336182 -0.650791347026825
vn 0 1 0
vn 0 1 0
vn 0 1 0
vn 0 1 0
f 127/127/127 128/128/128 126/126/126
f 126/126/126 128/128/128 125/125/125
f 128/128/128 127/127/127 129/129/129
f 132/132/132 131/131/131 133/133/133
f 131/131/131 130/130/130 133/133/133
f 133/133/133 134/134/134 132/132/132
f 135/135/135 138/138/138 137/137/137
f 138/138/138 135/135/135 136/136/136
f 139/139/139 142/142/142 141/141/141
f 142/142/142 139/139/139 140/140/140
f 146/146/146 143/143/143 144/144/144
f 143/143/143 146/146/146 145/145/145
