# Rhino

g outfield
v -41.75 0 26
v -41.75 0 -26
v -70 0 -55
v -70 0 55
v 41.75 0 26
v 70 0 55
v 70 0 -55
v 41.75 0 -26
v -41.75 0 -26
v 41.75 0 -26
v 70 0 -55
v -70 0 -55
v -41.75 0 26
v -70 0 55
v 70 0 55
v 41.75 0 26
vt 0 0
vt 1 0
vt 1 1
vt 0 1
vt 0 0
vt 0 1
vt 1 1
vt 1 0
vt 0 0
vt 1 0
vt 1 1
vt 0 1
vt 0 0
vt 0 1
vt 1 1
vt 1 0
vn 0 1 0
vn 0 1 0
vn 0 1 0
vn 0 1 0
vn 0 1 0
vn 0 1 0
vn 0 1 0
vn 0 1 0
vn 0 1 0
vn 0 1 0
vn 0 1 0
vn 0 1 0
vn 0 1 0
vn 0 1 0
vn 0 1 0
vn 0 1 0
f 1/1/1 2/2/2 3/3/3 4/4/4
f 5/5/5 6/6/6 7/7/7 8/8/8
f 9/9/9 10/10/10 11/11/11 12/12/12
f 13/13/13 14/14/14 15/15/15 16/16/16
