# Rhino

g golcollider
v 3.125 0 -0
v 3 0 -0
v 3 2.375 -0
v 3.125 2.5 -0
v 3.125 0 -0
v 3.125 0 -1.25
v 3.125 2.5 -1.25
v 3.125 2.5 -0
v 3.125 0 -1.25
v 3.125 0 -3
v 3.125 1 -3
v 3.125 2.5 -1.25
v 3 0.875 -2.875
v 3 0 -2.875
v 3 0 -1.125
v 3 2.375 -1.125
v 3 2.375 -1.125
v 3 0 -1.125
v 3 0 -0
v 3 2.375 -0
vt 0 0
vt 1 0
vt 1 1
vt 0 1
vt 0 0
vt 1 0
vt 1 1
vt 0 1
vt 0 0
vt 1 0
vt 1 1
vt 0 1
vt 0 0
vt 1 0
vt 1 1
vt 0 1
vt 0 0
vt 1 0
vt 1 1
vt 0 1
vn -0 -0 1
vn -0 -0 1
vn -0 -0 1
vn -0 -0 1
vn 1 0 -0
vn 1 0 -0
vn 1 0 -0
vn 1 0 -0
vn 1 0 -0
vn 1 0 -0
vn 1 0 -0
vn 1 0 -0
vn -1 0 -0
vn -1 0 -0
vn -1 0 -0
vn -1 0 -0
vn -1 0 -0
vn -1 0 -0
vn -1 0 -0
vn -1 0 -0
f 1/1/1 4/4/4 3/3/3 2/2/2
f 5/5/5 6/6/6 7/7/7 8/8/8
f 9/9/9 10/10/10 11/11/11 12/12/12
f 13/13/13 14/14/14 15/15/15 16/16/16
f 17/17/17 18/18/18 19/19/19 20/20/20
