# Rhino

g golcollider
v -3.125 0 -0
v -3 0 -0
v -3 2.375 -0
v -3.125 2.5 -0
v -3.125 0 -0
v -3.125 0 -1.25
v -3.125 2.5 -1.25
v -3.125 2.5 -0
v -3.125 0 -1.25
v -3.125 0 -3
v -3.125 1 -3
v -3.125 2.5 -1.25
v -3 2.375 -1.125
v -3 0 -1.125
v -3 0 -0
v -3 2.375 -0
v -3 0.875 -2.875
v -3 0 -2.875
v -3 0 -1.125
v -3 2.375 -1.125
vt 0 0
vt 1 0
vt 1 1
vt 0 1
vt 0 0
vt 1 0
vt 1 1
vt 0 1
vt 0 0
vt 1 0
vt 1 1
vt 0 1
vt 0 0
vt 1 0
vt 1 1
vt 0 1
vt 0 0
vt 1 0
vt 1 1
vt 0 1
vn 0 0 1
vn 0 0 1
vn -0 -0 1
vn 0 0 1
vn -1 -0 0
vn -1 -0 0
vn -1 -0 0
vn -1 -0 0
vn -1 -0 0
vn -1 -0 0
vn -1 -0 0
vn -1 -0 0
vn 1 0 -0
vn 1 0 -0
vn 1 0 -0
vn 1 0 -0
vn 1 0 -0
vn 1 0 -0
vn 1 0 -0
vn 1 0 -0
f 1/1/1 2/2/2 3/3/3 4/4/4
f 5/5/5 8/8/8 7/7/7 6/6/6
f 9/9/9 12/12/12 11/11/11 10/10/10
f 13/13/13 16/16/16 15/15/15 14/14/14
f 17/17/17 20/20/20 19/19/19 18/18/18
